<svg width="68" height="10" viewBox="0 0 68 10" fill="none" xmlns="http://www.w3.org/2000/svg">
<path d="M3.30744 0.562999H5.23144L8.00044 9H6.37544L5.79044 7.18H2.65744L2.05944 9H0.434438L3.30744 0.562999ZM3.04744 6.023H5.41344L4.24344 2.396L3.04744 6.023ZM14.0241 0.393999C14.5441 0.393999 14.9948 0.458999 15.3761 0.589C15.7575 0.710333 16.0868 0.883666 16.3641 1.109C16.9101 1.551 17.2655 2.17067 17.4301 2.968L15.7921 3.267C15.6535 2.825 15.4368 2.46967 15.1421 2.201C14.8561 1.92367 14.4965 1.785 14.0631 1.785C13.4738 1.785 12.9971 2.032 12.6331 2.526C12.2431 3.06333 12.0481 3.80867 12.0481 4.762C12.0481 5.70667 12.2215 6.44767 12.5681 6.985C12.9148 7.51367 13.3871 7.778 13.9851 7.778C14.5831 7.778 15.0338 7.635 15.3371 7.349C15.6405 7.05433 15.7921 6.67733 15.7921 6.218H17.4431C17.4431 7.16267 17.1398 7.895 16.5331 8.415C15.9351 8.92633 15.1118 9.182 14.0631 9.182C12.9451 9.182 12.0568 8.792 11.3981 8.012C10.7308 7.21467 10.3971 6.13133 10.3971 4.762C10.3971 3.37533 10.7395 2.292 11.4241 1.512C12.0828 0.766666 12.9495 0.393999 14.0241 0.393999ZM23.7634 0.393999C24.2834 0.393999 24.7341 0.458999 25.1154 0.589C25.4967 0.710333 25.8261 0.883666 26.1034 1.109C26.6494 1.551 27.0047 2.17067 27.1694 2.968L25.5314 3.267C25.3927 2.825 25.1761 2.46967 24.8814 2.201C24.5954 1.92367 24.2357 1.785 23.8024 1.785C23.2131 1.785 22.7364 2.032 22.3724 2.526C21.9824 3.06333 21.7874 3.80867 21.7874 4.762C21.7874 5.70667 21.9607 6.44767 22.3074 6.985C22.6541 7.51367 23.1264 7.778 23.7244 7.778C24.3224 7.778 24.7731 7.635 25.0764 7.349C25.3797 7.05433 25.5314 6.67733 25.5314 6.218H27.1824C27.1824 7.16267 26.8791 7.895 26.2724 8.415C25.6744 8.92633 24.8511 9.182 23.8024 9.182C22.6844 9.182 21.7961 8.792 21.1374 8.012C20.4701 7.21467 20.1364 6.13133 20.1364 4.762C20.1364 3.37533 20.4787 2.292 21.1634 1.512C21.8221 0.766666 22.6887 0.393999 23.7634 0.393999ZM33.7106 0.393999C34.274 0.393999 34.7896 0.489333 35.2576 0.679999C35.7256 0.862 36.1286 1.135 36.4666 1.499C37.1773 2.26167 37.5326 3.35367 37.5326 4.775C37.5326 6.205 37.1773 7.31 36.4666 8.09C35.7906 8.818 34.8676 9.182 33.6976 9.182C32.5363 9.182 31.6176 8.80933 30.9416 8.064C30.231 7.29267 29.8756 6.19633 29.8756 4.775C29.8756 3.33633 30.231 2.23567 30.9416 1.473C31.609 0.753666 32.532 0.393999 33.7106 0.393999ZM35.9466 4.801C35.9466 3.83033 35.743 3.085 35.3356 2.565C34.937 2.03633 34.3953 1.772 33.7106 1.772C33.026 1.772 32.48 2.03633 32.0726 2.565C31.6653 3.085 31.4616 3.83033 31.4616 4.801C31.4616 5.763 31.6653 6.504 32.0726 7.024C32.48 7.53533 33.026 7.791 33.7106 7.791C34.3953 7.791 34.937 7.53533 35.3356 7.024C35.743 6.504 35.9466 5.763 35.9466 4.801ZM42.2517 0.562999V5.815C42.2517 6.50833 42.425 7.00667 42.7717 7.31C43.127 7.61333 43.582 7.765 44.1367 7.765C44.6913 7.765 45.142 7.61333 45.4887 7.31C45.844 7.00667 46.0217 6.50833 46.0217 5.815V0.562999H47.5557V5.815C47.5557 6.88967 47.2567 7.72167 46.6587 8.311C46.0607 8.89167 45.22 9.182 44.1367 9.182C43.0533 9.182 42.2127 8.89167 41.6147 8.311C41.0167 7.72167 40.7177 6.88967 40.7177 5.815V0.562999H42.2517ZM52.9743 0.562999L56.6923 6.543V0.562999H58.2263V9H56.6663L52.8313 2.812V9H51.2973V0.562999H52.9743ZM61.0106 0.562999H67.7706V1.889H65.1576V9H63.6236V1.889H61.0106V0.562999Z" fill="#2C2830"/>
</svg>
