<svg width="327" height="694" viewBox="0 0 327 694" fill="none" xmlns="http://www.w3.org/2000/svg">
<g clip-path="url(#clip0_0_151)">
<path d="M115.295 3.394C115.858 3.394 116.374 3.48933 116.842 3.68C117.31 3.862 117.713 4.135 118.051 4.499C118.762 5.26167 119.117 6.35367 119.117 7.775C119.117 9.205 118.762 10.31 118.051 11.09C117.375 11.818 116.452 12.182 115.282 12.182C114.121 12.182 113.202 11.8093 112.526 11.064C111.815 10.2927 111.46 9.19633 111.46 7.775C111.46 6.33633 111.815 5.23567 112.526 4.473C113.193 3.75367 114.116 3.394 115.295 3.394ZM117.531 7.801C117.531 6.83033 117.327 6.085 116.92 5.565C116.521 5.03633 115.98 4.772 115.295 4.772C114.61 4.772 114.064 5.03633 113.657 5.565C113.25 6.085 113.046 6.83033 113.046 7.801C113.046 8.763 113.25 9.504 113.657 10.024C114.064 10.5353 114.61 10.791 115.295 10.791C115.98 10.791 116.521 10.5353 116.92 10.024C117.327 9.504 117.531 8.763 117.531 7.801ZM123.836 3.563V8.815C123.836 9.50833 124.009 10.0067 124.356 10.31C124.711 10.6133 125.166 10.765 125.721 10.765C126.276 10.765 126.726 10.6133 127.073 10.31C127.428 10.0067 127.606 9.50833 127.606 8.815V3.563H129.14V8.815C129.14 9.88967 128.841 10.7217 128.243 11.311C127.645 11.8917 126.804 12.182 125.721 12.182C124.638 12.182 123.797 11.8917 123.199 11.311C122.601 10.7217 122.302 9.88967 122.302 8.815V3.563H123.836ZM139.174 6.15C139.174 6.748 139.005 7.25933 138.667 7.684C138.329 8.10867 137.843 8.40333 137.211 8.568L139.473 12H137.471L135.612 8.711H134.442V12H132.908V3.563H136.028C137.024 3.563 137.8 3.80133 138.355 4.278C138.901 4.73733 139.174 5.36133 139.174 6.15ZM135.885 7.684C136.448 7.684 136.873 7.55833 137.159 7.307C137.445 7.047 137.588 6.709 137.588 6.293C137.588 5.86833 137.458 5.53033 137.198 5.279C136.938 5.019 136.548 4.889 136.028 4.889H134.442V7.684H135.885ZM150.591 3.394C151.111 3.394 151.562 3.459 151.943 3.589C152.324 3.71033 152.654 3.88367 152.931 4.109C153.477 4.551 153.832 5.17067 153.997 5.968L152.359 6.267C152.22 5.825 152.004 5.46967 151.709 5.201C151.423 4.92367 151.063 4.785 150.63 4.785C150.041 4.785 149.564 5.032 149.2 5.526C148.81 6.06333 148.615 6.80867 148.615 7.762C148.615 8.70667 148.788 9.44767 149.135 9.985C149.482 10.5137 149.954 10.778 150.552 10.778C151.15 10.778 151.601 10.635 151.904 10.349C152.207 10.0543 152.359 9.67733 152.359 9.218H154.01C154.01 10.1627 153.707 10.895 153.1 11.415C152.502 11.9263 151.679 12.182 150.63 12.182C149.512 12.182 148.624 11.792 147.965 11.012C147.298 10.2147 146.964 9.13133 146.964 7.762C146.964 6.37533 147.306 5.292 147.991 4.512C148.65 3.76667 149.516 3.394 150.591 3.394ZM160.538 3.394C161.102 3.394 161.617 3.48933 162.085 3.68C162.553 3.862 162.956 4.135 163.294 4.499C164.005 5.26167 164.36 6.35367 164.36 7.775C164.36 9.205 164.005 10.31 163.294 11.09C162.618 11.818 161.695 12.182 160.525 12.182C159.364 12.182 158.445 11.8093 157.769 11.064C157.059 10.2927 156.703 9.19633 156.703 7.775C156.703 6.33633 157.059 5.23567 157.769 4.473C158.437 3.75367 159.36 3.394 160.538 3.394ZM162.774 7.801C162.774 6.83033 162.571 6.085 162.163 5.565C161.765 5.03633 161.223 4.772 160.538 4.772C159.854 4.772 159.308 5.03633 158.9 5.565C158.493 6.085 158.289 6.83033 158.289 7.801C158.289 8.763 158.493 9.504 158.9 10.024C159.308 10.5353 159.854 10.791 160.538 10.791C161.223 10.791 161.765 10.5353 162.163 10.024C162.571 9.504 162.774 8.763 162.774 7.801ZM169.872 3.563L172.186 8.581L174.5 3.563H176.619V12H175.072V5.591L172.68 11.077H171.679L169.209 5.409V12H167.675V3.563H169.872ZM183.476 3.563C184.429 3.563 185.17 3.797 185.699 4.265C186.236 4.72433 186.505 5.38733 186.505 6.254C186.505 7.112 186.236 7.775 185.699 8.243C185.17 8.70233 184.429 8.932 183.476 8.932H182.046V12H180.499V3.563H183.476ZM183.476 7.593C183.952 7.593 184.312 7.46733 184.555 7.216C184.797 6.96467 184.919 6.644 184.919 6.254C184.919 5.85533 184.797 5.53033 184.555 5.279C184.312 5.019 183.952 4.889 183.476 4.889H182.046V7.593H183.476ZM191.008 3.563H192.932L195.701 12H194.076L193.491 10.18H190.358L189.76 12H188.135L191.008 3.563ZM190.748 9.023H193.114L191.944 5.396L190.748 9.023ZM200.347 3.563L204.065 9.543V3.563H205.599V12H204.039L200.204 5.812V12H198.67V3.563H200.347ZM210.333 3.563L212.192 6.93L214.142 3.563H215.949L212.946 8.516V12H211.412V8.516L208.513 3.563H210.333Z" fill="#837D88"/>
<path d="M110.913 54.563V58.086H114.592V54.563H116.126V63H114.592V59.425H110.913V63H109.379V54.563H110.913ZM123.295 54.394C123.858 54.394 124.374 54.4893 124.842 54.68C125.31 54.862 125.713 55.135 126.051 55.499C126.762 56.2617 127.117 57.3537 127.117 58.775C127.117 60.205 126.762 61.31 126.051 62.09C125.375 62.818 124.452 63.182 123.282 63.182C122.121 63.182 121.202 62.8093 120.526 62.064C119.815 61.2927 119.46 60.1963 119.46 58.775C119.46 57.3363 119.815 56.2357 120.526 55.473C121.193 54.7537 122.116 54.394 123.295 54.394ZM125.531 58.801C125.531 57.8303 125.327 57.085 124.92 56.565C124.521 56.0363 123.98 55.772 123.295 55.772C122.61 55.772 122.064 56.0363 121.657 56.565C121.25 57.085 121.046 57.8303 121.046 58.801C121.046 59.763 121.25 60.504 121.657 61.024C122.064 61.5353 122.61 61.791 123.295 61.791C123.98 61.791 124.521 61.5353 124.92 61.024C125.327 60.504 125.531 59.763 125.531 58.801ZM131.199 54.563L133.058 60.972L134.865 55.122H135.905L137.816 60.998L139.792 54.563H141.521L138.622 63H137.01L135.424 58.242L133.851 63H132.239L129.483 54.563H131.199ZM150.043 54.563L151.902 60.972L153.709 55.122H154.749L156.66 60.998L158.636 54.563H160.365L157.466 63H155.854L154.268 58.242L152.695 63H151.083L148.327 54.563H150.043ZM163.319 54.563H168.753V55.889H164.853V58.112H168.506V59.438H164.853V61.661H168.753V63H163.319V54.563ZM178.004 54.563L179.863 60.972L181.67 55.122H182.71L184.621 60.998L186.597 54.563H188.326L185.427 63H183.815L182.229 58.242L180.656 63H179.044L176.288 54.563H178.004ZM194.529 54.394C195.093 54.394 195.608 54.4893 196.076 54.68C196.544 54.862 196.947 55.135 197.285 55.499C197.996 56.2617 198.351 57.3537 198.351 58.775C198.351 60.205 197.996 61.31 197.285 62.09C196.609 62.818 195.686 63.182 194.516 63.182C193.355 63.182 192.436 62.8093 191.76 62.064C191.05 61.2927 190.694 60.1963 190.694 58.775C190.694 57.3363 191.05 56.2357 191.76 55.473C192.428 54.7537 193.351 54.394 194.529 54.394ZM196.765 58.801C196.765 57.8303 196.562 57.085 196.154 56.565C195.756 56.0363 195.214 55.772 194.529 55.772C193.845 55.772 193.299 56.0363 192.891 56.565C192.484 57.085 192.28 57.8303 192.28 58.801C192.28 59.763 192.484 60.504 192.891 61.024C193.299 61.5353 193.845 61.791 194.529 61.791C195.214 61.791 195.756 61.5353 196.154 61.024C196.562 60.504 196.765 59.763 196.765 58.801ZM207.933 57.15C207.933 57.748 207.764 58.2593 207.426 58.684C207.088 59.1087 206.602 59.4033 205.97 59.568L208.232 63H206.23L204.371 59.711H203.201V63H201.667V54.563H204.787C205.783 54.563 206.559 54.8013 207.114 55.278C207.66 55.7373 207.933 56.3613 207.933 57.15ZM204.644 58.684C205.207 58.684 205.632 58.5583 205.918 58.307C206.204 58.047 206.347 57.709 206.347 57.293C206.347 56.8683 206.217 56.5303 205.957 56.279C205.697 56.019 205.307 55.889 204.787 55.889H203.201V58.684H204.644ZM213.08 54.563V58.034L216.408 54.563H218.514L214.796 58.359L218.761 63H216.772L213.769 59.425L213.08 60.127V63H211.533V54.563H213.08Z" fill="#2D2641"/>
<path d="M114.926 85.563L116.785 91.972L118.592 86.122H119.632L121.543 91.998L123.519 85.563H125.248L122.349 94H120.737L119.151 89.242L117.578 94H115.966L113.21 85.563H114.926ZM129.749 85.563V89.086H133.428V85.563H134.962V94H133.428V90.425H129.749V94H128.215V85.563H129.749ZM139.713 85.563L141.572 88.93L143.522 85.563H145.329L142.326 90.516V94H140.792V90.516L137.893 85.563H139.713ZM153.027 85.563H154.561V94H153.027V85.563ZM160.127 85.563L163.845 91.543V85.563H165.379V94H163.819L159.984 87.812V94H158.45V85.563H160.127ZM173.727 87.89C173.588 87.1533 173.068 86.785 172.167 86.785C171.725 86.785 171.378 86.876 171.127 87.058C170.884 87.2313 170.763 87.4437 170.763 87.695C170.763 87.9463 170.841 88.1457 170.997 88.293C171.162 88.4317 171.413 88.5617 171.751 88.683L173.584 89.398C174.208 89.6407 174.689 89.9483 175.027 90.321C175.365 90.685 175.534 91.1443 175.534 91.699C175.534 92.4617 175.248 93.0683 174.676 93.519C174.104 93.961 173.289 94.182 172.232 94.182C171.296 94.182 170.538 93.9523 169.957 93.493C169.307 92.9903 168.965 92.2797 168.93 91.361H170.451C170.451 92.0543 170.811 92.492 171.53 92.674C171.747 92.7347 172.033 92.765 172.388 92.765C172.743 92.765 173.073 92.6783 173.376 92.505C173.679 92.323 173.831 92.0847 173.831 91.79C173.831 91.4867 173.749 91.257 173.584 91.101C173.419 90.9363 173.151 90.7847 172.778 90.646L171.101 89.983C170.451 89.7317 169.953 89.437 169.606 89.099C169.259 88.761 169.086 88.293 169.086 87.695C169.086 86.993 169.359 86.4383 169.905 86.031C170.46 85.6063 171.209 85.394 172.154 85.394C173.107 85.394 173.84 85.615 174.351 86.057C174.871 86.4903 175.17 87.1013 175.248 87.89H173.727ZM180.488 85.563V90.815C180.488 91.5083 180.661 92.0067 181.008 92.31C181.363 92.6133 181.818 92.765 182.373 92.765C182.928 92.765 183.378 92.6133 183.725 92.31C184.08 92.0067 184.258 91.5083 184.258 90.815V85.563H185.792V90.815C185.792 91.8897 185.493 92.7217 184.895 93.311C184.297 93.8917 183.456 94.182 182.373 94.182C181.29 94.182 180.449 93.8917 179.851 93.311C179.253 92.7217 178.954 91.8897 178.954 90.815V85.563H180.488ZM195.826 88.15C195.826 88.748 195.657 89.2593 195.319 89.684C194.981 90.1087 194.495 90.4033 193.863 90.568L196.125 94H194.123L192.264 90.711H191.094V94H189.56V85.563H192.68C193.676 85.563 194.452 85.8013 195.007 86.278C195.553 86.7373 195.826 87.3613 195.826 88.15ZM192.537 89.684C193.1 89.684 193.525 89.5583 193.811 89.307C194.097 89.047 194.24 88.709 194.24 88.293C194.24 87.8683 194.11 87.5303 193.85 87.279C193.59 87.019 193.2 86.889 192.68 86.889H191.094V89.684H192.537ZM199.413 85.563H204.847V86.889H200.947V89.112H204.6V90.438H200.947V92.661H204.847V94H199.413V85.563ZM213.639 87.747C213.639 88.2063 213.526 88.592 213.301 88.904C213.076 89.2073 212.72 89.4803 212.235 89.723C211.828 89.931 211.559 90.1087 211.429 90.256C211.308 90.4033 211.23 90.542 211.195 90.672C211.16 90.7933 211.143 90.9363 211.143 91.101V91.478H209.609V90.958C209.609 90.178 209.843 89.6233 210.311 89.294C210.476 89.1727 210.718 89.0297 211.039 88.865C211.36 88.7003 211.589 88.5357 211.728 88.371C211.875 88.1977 211.949 87.981 211.949 87.721C211.949 87.4523 211.841 87.2313 211.624 87.058C211.407 86.876 211.087 86.785 210.662 86.785C210.237 86.785 209.904 86.889 209.661 87.097C209.418 87.2963 209.28 87.5607 209.245 87.89H207.646C207.689 87.136 207.967 86.5337 208.478 86.083C208.989 85.6237 209.704 85.394 210.623 85.394C211.55 85.394 212.283 85.6193 212.82 86.07C213.366 86.5207 213.639 87.0797 213.639 87.747ZM209.349 93.155C209.349 92.8603 209.444 92.6177 209.635 92.427C209.834 92.2363 210.09 92.141 210.402 92.141C210.723 92.141 210.987 92.2363 211.195 92.427C211.403 92.6177 211.507 92.8603 211.507 93.155C211.507 93.4497 211.403 93.6967 211.195 93.896C210.987 94.0867 210.723 94.182 210.402 94.182C210.09 94.182 209.834 94.0867 209.635 93.896C209.444 93.6967 209.349 93.4497 209.349 93.155Z" fill="#2D2641"/>
<path d="M119.842 116.394C120.362 116.394 120.812 116.459 121.194 116.589C121.575 116.71 121.904 116.884 122.182 117.109C122.728 117.551 123.083 118.171 123.248 118.968L121.61 119.267C121.471 118.825 121.254 118.47 120.96 118.201C120.674 117.924 120.314 117.785 119.881 117.785C119.291 117.785 118.815 118.032 118.451 118.526C118.061 119.063 117.866 119.809 117.866 120.762C117.866 121.707 118.039 122.448 118.386 122.985C118.732 123.514 119.205 123.778 119.803 123.778C120.401 123.778 120.851 123.635 121.155 123.349C121.458 123.054 121.61 122.677 121.61 122.218H123.261C123.261 123.163 122.957 123.895 122.351 124.415C121.753 124.926 120.929 125.182 119.881 125.182C118.763 125.182 117.874 124.792 117.216 124.012C116.548 123.215 116.215 122.131 116.215 120.762C116.215 119.375 116.557 118.292 117.242 117.512C117.9 116.767 118.767 116.394 119.842 116.394ZM128.086 116.563V120.086H131.765V116.563H133.299V125H131.765V121.425H128.086V125H126.552V116.563H128.086ZM137.217 116.563H142.651V117.889H138.751V120.112H142.404V121.438H138.751V123.661H142.651V125H137.217V116.563ZM149.377 116.394C149.897 116.394 150.347 116.459 150.729 116.589C151.11 116.71 151.439 116.884 151.717 117.109C152.263 117.551 152.618 118.171 152.783 118.968L151.145 119.267C151.006 118.825 150.789 118.47 150.495 118.201C150.209 117.924 149.849 117.785 149.416 117.785C148.826 117.785 148.35 118.032 147.986 118.526C147.596 119.063 147.401 119.809 147.401 120.762C147.401 121.707 147.574 122.448 147.921 122.985C148.267 123.514 148.74 123.778 149.338 123.778C149.936 123.778 150.386 123.635 150.69 123.349C150.993 123.054 151.145 122.677 151.145 122.218H152.796C152.796 123.163 152.492 123.895 151.886 124.415C151.288 124.926 150.464 125.182 149.416 125.182C148.298 125.182 147.409 124.792 146.751 124.012C146.083 123.215 145.75 122.131 145.75 120.762C145.75 119.375 146.092 118.292 146.777 117.512C147.435 116.767 148.302 116.394 149.377 116.394ZM157.634 116.563V120.034L160.962 116.563H163.068L159.35 120.359L163.315 125H161.326L158.323 121.425L157.634 122.127V125H156.087V116.563H157.634ZM173.819 116.563C174.772 116.563 175.513 116.797 176.042 117.265C176.579 117.724 176.848 118.387 176.848 119.254C176.848 120.112 176.579 120.775 176.042 121.243C175.513 121.702 174.772 121.932 173.819 121.932H172.389V125H170.842V116.563H173.819ZM173.819 120.593C174.296 120.593 174.655 120.467 174.898 120.216C175.141 119.965 175.262 119.644 175.262 119.254C175.262 118.855 175.141 118.53 174.898 118.279C174.655 118.019 174.296 117.889 173.819 117.889H172.389V120.593H173.819ZM186.201 119.15C186.201 119.748 186.032 120.259 185.694 120.684C185.356 121.109 184.87 121.403 184.238 121.568L186.5 125H184.498L182.639 121.711H181.469V125H179.935V116.563H183.055C184.051 116.563 184.827 116.801 185.382 117.278C185.928 117.737 186.201 118.361 186.201 119.15ZM182.912 120.684C183.475 120.684 183.9 120.558 184.186 120.307C184.472 120.047 184.615 119.709 184.615 119.293C184.615 118.868 184.485 118.53 184.225 118.279C183.965 118.019 183.575 117.889 183.055 117.889H181.469V120.684H182.912ZM189.801 116.563H191.335V125H189.801V116.563ZM198.278 116.394C198.798 116.394 199.249 116.459 199.63 116.589C200.011 116.71 200.341 116.884 200.618 117.109C201.164 117.551 201.519 118.171 201.684 118.968L200.046 119.267C199.907 118.825 199.691 118.47 199.396 118.201C199.11 117.924 198.75 117.785 198.317 117.785C197.728 117.785 197.251 118.032 196.887 118.526C196.497 119.063 196.302 119.809 196.302 120.762C196.302 121.707 196.475 122.448 196.822 122.985C197.169 123.514 197.641 123.778 198.239 123.778C198.837 123.778 199.288 123.635 199.591 123.349C199.894 123.054 200.046 122.677 200.046 122.218H201.697C201.697 123.163 201.394 123.895 200.787 124.415C200.189 124.926 199.366 125.182 198.317 125.182C197.199 125.182 196.311 124.792 195.652 124.012C194.985 123.215 194.651 122.131 194.651 120.762C194.651 119.375 194.993 118.292 195.678 117.512C196.337 116.767 197.203 116.394 198.278 116.394ZM204.975 116.563H210.409V117.889H206.509V120.112H210.162V121.438H206.509V123.661H210.409V125H204.975V116.563Z" fill="#2D2641"/>
<path d="M138.329 150.15C138.329 150.748 138.16 151.259 137.822 151.684C137.484 152.109 136.999 152.403 136.366 152.568L138.628 156H136.626L134.767 152.711H133.597V156H132.063V147.563H135.183C136.18 147.563 136.956 147.801 137.51 148.278C138.056 148.737 138.329 149.361 138.329 150.15ZM135.04 151.684C135.604 151.684 136.028 151.558 136.314 151.307C136.6 151.047 136.743 150.709 136.743 150.293C136.743 149.868 136.613 149.53 136.353 149.279C136.093 149.019 135.703 148.889 135.183 148.889H133.597V151.684H135.04ZM141.917 147.563H147.351V148.889H143.451V151.112H147.104V152.438H143.451V154.661H147.351V156H141.917V147.563ZM151.723 147.563L153.777 154.076L155.857 147.563H157.469L154.57 156H152.958L150.098 147.563H151.723ZM160.443 147.563H161.977V156H160.443V147.563ZM165.879 147.563H171.313V148.889H167.413V151.112H171.066V152.438H167.413V154.661H171.313V156H165.879V147.563ZM175.776 147.563L177.635 153.972L179.442 148.122H180.482L182.393 153.998L184.369 147.563H186.098L183.199 156H181.587L180.001 151.242L178.428 156H176.816L174.06 147.563H175.776ZM193.497 149.89C193.359 149.153 192.839 148.785 191.937 148.785C191.495 148.785 191.149 148.876 190.897 149.058C190.655 149.231 190.533 149.444 190.533 149.695C190.533 149.946 190.611 150.146 190.767 150.293C190.932 150.432 191.183 150.562 191.521 150.683L193.354 151.398C193.978 151.641 194.459 151.948 194.797 152.321C195.135 152.685 195.304 153.144 195.304 153.699C195.304 154.462 195.018 155.068 194.446 155.519C193.874 155.961 193.06 156.182 192.002 156.182C191.066 156.182 190.308 155.952 189.727 155.493C189.077 154.99 188.735 154.28 188.7 153.361H190.221C190.221 154.054 190.581 154.492 191.3 154.674C191.517 154.735 191.803 154.765 192.158 154.765C192.514 154.765 192.843 154.678 193.146 154.505C193.45 154.323 193.601 154.085 193.601 153.79C193.601 153.487 193.519 153.257 193.354 153.101C193.19 152.936 192.921 152.785 192.548 152.646L190.871 151.983C190.221 151.732 189.723 151.437 189.376 151.099C189.03 150.761 188.856 150.293 188.856 149.695C188.856 148.993 189.129 148.438 189.675 148.031C190.23 147.606 190.98 147.394 191.924 147.394C192.878 147.394 193.61 147.615 194.121 148.057C194.641 148.49 194.94 149.101 195.018 149.89H193.497Z" fill="#2D2641"/>
<path d="M135.222 202.563V206.086H138.901V202.563H140.435V211H138.901V207.425H135.222V211H133.688V202.563H135.222ZM144.354 202.563H149.788V203.889H145.888V206.112H149.541V207.438H145.888V209.661H149.788V211H144.354V202.563ZM155.018 209.661H158.489V211H153.484V202.563H155.018V209.661ZM164.346 202.563C165.3 202.563 166.041 202.797 166.569 203.265C167.107 203.724 167.375 204.387 167.375 205.254C167.375 206.112 167.107 206.775 166.569 207.243C166.041 207.702 165.3 207.932 164.346 207.932H162.916V211H161.369V202.563H164.346ZM164.346 206.593C164.823 206.593 165.183 206.467 165.425 206.216C165.668 205.965 165.789 205.644 165.789 205.254C165.789 204.855 165.668 204.53 165.425 204.279C165.183 204.019 164.823 203.889 164.346 203.889H162.916V206.593H164.346ZM177.447 202.563L179.761 207.581L182.075 202.563H184.194V211H182.647V204.591L180.255 210.077H179.254L176.784 204.409V211H175.25V202.563H177.447ZM188.099 202.563H193.533V203.889H189.633V206.112H193.286V207.438H189.633V209.661H193.533V211H188.099V202.563Z" fill="#837D88"/>
<path d="M151.555 253.563H156.872V254.889H153.089V257.112H156.547V258.425H153.089V262H151.555V253.563ZM161.263 253.563H163.187L165.956 262H164.331L163.746 260.18H160.613L160.015 262H158.39L161.263 253.563ZM161.003 259.023H163.369L162.199 255.396L161.003 259.023ZM175.906 264.106C175.551 264.262 175.165 264.34 174.749 264.34C173.909 264.34 173.198 263.902 172.617 263.027L172.058 262.182C170.94 262.165 170.048 261.783 169.38 261.038C168.696 260.249 168.353 259.162 168.353 257.775C168.353 256.336 168.709 255.236 169.419 254.473C170.087 253.754 171.005 253.394 172.175 253.394C173.337 253.394 174.26 253.762 174.944 254.499C175.655 255.262 176.01 256.354 176.01 257.775C176.01 258.945 175.785 259.881 175.334 260.583C174.884 261.276 174.277 261.744 173.514 261.987L173.722 262.312C173.93 262.633 174.238 262.802 174.645 262.819C175.018 262.819 175.438 262.719 175.906 262.52V264.106ZM174.424 257.801C174.424 256.83 174.221 256.085 173.813 255.565C173.415 255.036 172.873 254.772 172.188 254.772C171.504 254.772 170.958 255.036 170.55 255.565C170.143 256.085 169.939 256.83 169.939 257.801C169.939 258.763 170.143 259.504 170.55 260.024C170.958 260.535 171.504 260.791 172.188 260.791C172.873 260.791 173.415 260.535 173.813 260.024C174.221 259.504 174.424 258.763 174.424 257.801Z" fill="#2D2641"/>
<path d="M110.329 284.563H117.089V285.889H114.476V293H112.942V285.889H110.329V284.563ZM119.866 284.563H125.3V285.889H121.4V288.112H125.053V289.438H121.4V291.661H125.3V293H119.866V284.563ZM135.263 287.15C135.263 287.748 135.094 288.259 134.756 288.684C134.418 289.109 133.932 289.403 133.3 289.568L135.562 293H133.56L131.701 289.711H130.531V293H128.997V284.563H132.117C133.113 284.563 133.889 284.801 134.444 285.278C134.99 285.737 135.263 286.361 135.263 287.15ZM131.974 288.684C132.537 288.684 132.962 288.558 133.248 288.307C133.534 288.047 133.677 287.709 133.677 287.293C133.677 286.868 133.547 286.53 133.287 286.279C133.027 286.019 132.637 285.889 132.117 285.889H130.531V288.684H131.974ZM141.06 284.563L143.374 289.581L145.688 284.563H147.807V293H146.26V286.591L143.868 292.077H142.867L140.397 286.409V293H138.863V284.563H141.06ZM156.158 286.89C156.019 286.153 155.499 285.785 154.598 285.785C154.156 285.785 153.809 285.876 153.558 286.058C153.315 286.231 153.194 286.444 153.194 286.695C153.194 286.946 153.272 287.146 153.428 287.293C153.593 287.432 153.844 287.562 154.182 287.683L156.015 288.398C156.639 288.641 157.12 288.948 157.458 289.321C157.796 289.685 157.965 290.144 157.965 290.699C157.965 291.462 157.679 292.068 157.107 292.519C156.535 292.961 155.72 293.182 154.663 293.182C153.727 293.182 152.969 292.952 152.388 292.493C151.738 291.99 151.396 291.28 151.361 290.361H152.882C152.882 291.054 153.242 291.492 153.961 291.674C154.178 291.735 154.464 291.765 154.819 291.765C155.174 291.765 155.504 291.678 155.807 291.505C156.11 291.323 156.262 291.085 156.262 290.79C156.262 290.487 156.18 290.257 156.015 290.101C155.85 289.936 155.582 289.785 155.209 289.646L153.532 288.983C152.882 288.732 152.384 288.437 152.037 288.099C151.69 287.761 151.517 287.293 151.517 286.695C151.517 285.993 151.79 285.438 152.336 285.031C152.891 284.606 153.64 284.394 154.585 284.394C155.538 284.394 156.271 284.615 156.782 285.057C157.302 285.49 157.601 286.101 157.679 286.89H156.158ZM169.54 284.394C170.104 284.394 170.619 284.489 171.087 284.68C171.555 284.862 171.958 285.135 172.296 285.499C173.007 286.262 173.362 287.354 173.362 288.775C173.362 290.205 173.007 291.31 172.296 292.09C171.62 292.818 170.697 293.182 169.527 293.182C168.366 293.182 167.447 292.809 166.771 292.064C166.061 291.293 165.705 290.196 165.705 288.775C165.705 287.336 166.061 286.236 166.771 285.473C167.439 284.754 168.362 284.394 169.54 284.394ZM171.776 288.801C171.776 287.83 171.573 287.085 171.165 286.565C170.767 286.036 170.225 285.772 169.54 285.772C168.856 285.772 168.31 286.036 167.902 286.565C167.495 287.085 167.291 287.83 167.291 288.801C167.291 289.763 167.495 290.504 167.902 291.024C168.31 291.535 168.856 291.791 169.54 291.791C170.225 291.791 170.767 291.535 171.165 291.024C171.573 290.504 171.776 289.763 171.776 288.801ZM176.677 284.563H181.994V285.889H178.211V288.112H181.669V289.425H178.211V293H176.677V284.563ZM191.479 284.563V289.815C191.479 290.508 191.652 291.007 191.999 291.31C192.354 291.613 192.809 291.765 193.364 291.765C193.918 291.765 194.369 291.613 194.716 291.31C195.071 291.007 195.249 290.508 195.249 289.815V284.563H196.783V289.815C196.783 290.89 196.484 291.722 195.886 292.311C195.288 292.892 194.447 293.182 193.364 293.182C192.28 293.182 191.44 292.892 190.842 292.311C190.244 291.722 189.945 290.89 189.945 289.815V284.563H191.479ZM204.983 286.89C204.845 286.153 204.325 285.785 203.423 285.785C202.981 285.785 202.635 285.876 202.383 286.058C202.141 286.231 202.019 286.444 202.019 286.695C202.019 286.946 202.097 287.146 202.253 287.293C202.418 287.432 202.669 287.562 203.007 287.683L204.84 288.398C205.464 288.641 205.945 288.948 206.283 289.321C206.621 289.685 206.79 290.144 206.79 290.699C206.79 291.462 206.504 292.068 205.932 292.519C205.36 292.961 204.546 293.182 203.488 293.182C202.552 293.182 201.794 292.952 201.213 292.493C200.563 291.99 200.221 291.28 200.186 290.361H201.707C201.707 291.054 202.067 291.492 202.786 291.674C203.003 291.735 203.289 291.765 203.644 291.765C204 291.765 204.329 291.678 204.632 291.505C204.936 291.323 205.087 291.085 205.087 290.79C205.087 290.487 205.005 290.257 204.84 290.101C204.676 289.936 204.407 289.785 204.034 289.646L202.357 288.983C201.707 288.732 201.209 288.437 200.862 288.099C200.516 287.761 200.342 287.293 200.342 286.695C200.342 285.993 200.615 285.438 201.161 285.031C201.716 284.606 202.466 284.394 203.41 284.394C204.364 284.394 205.096 284.615 205.607 285.057C206.127 285.49 206.426 286.101 206.504 286.89H204.983ZM210.327 284.563H215.761V285.889H211.861V288.112H215.514V289.438H211.861V291.661H215.761V293H210.327V284.563Z" fill="#2D2641"/>
<path d="M109.084 315.563C110.037 315.563 110.778 315.797 111.307 316.265C111.844 316.724 112.113 317.387 112.113 318.254C112.113 319.112 111.844 319.775 111.307 320.243C110.778 320.702 110.037 320.932 109.084 320.932H107.654V324H106.107V315.563H109.084ZM109.084 319.593C109.56 319.593 109.92 319.467 110.163 319.216C110.405 318.965 110.527 318.644 110.527 318.254C110.527 317.855 110.405 317.53 110.163 317.279C109.92 317.019 109.56 316.889 109.084 316.889H107.654V319.593H109.084ZM121.465 318.15C121.465 318.748 121.296 319.259 120.958 319.684C120.62 320.109 120.135 320.403 119.502 320.568L121.764 324H119.762L117.903 320.711H116.733V324H115.199V315.563H118.319C119.316 315.563 120.092 315.801 120.646 316.278C121.192 316.737 121.465 317.361 121.465 318.15ZM118.176 319.684C118.74 319.684 119.164 319.558 119.45 319.307C119.736 319.047 119.879 318.709 119.879 318.293C119.879 317.868 119.749 317.53 119.489 317.279C119.229 317.019 118.839 316.889 118.319 316.889H116.733V319.684H118.176ZM125.065 315.563H126.599V324H125.065V315.563ZM131.19 315.563L133.244 322.076L135.324 315.563H136.936L134.037 324H132.425L129.565 315.563H131.19ZM141.327 315.563H143.251L146.02 324H144.395L143.81 322.18H140.677L140.079 324H138.454L141.327 315.563ZM141.067 321.023H143.433L142.263 317.396L141.067 321.023ZM152.044 315.394C152.564 315.394 153.014 315.459 153.396 315.589C153.777 315.71 154.106 315.884 154.384 316.109C154.93 316.551 155.285 317.171 155.45 317.968L153.812 318.267C153.673 317.825 153.456 317.47 153.162 317.201C152.876 316.924 152.516 316.785 152.083 316.785C151.493 316.785 151.017 317.032 150.653 317.526C150.263 318.063 150.068 318.809 150.068 319.762C150.068 320.707 150.241 321.448 150.588 321.985C150.934 322.514 151.407 322.778 152.005 322.778C152.603 322.778 153.053 322.635 153.357 322.349C153.66 322.054 153.812 321.677 153.812 321.218H155.463C155.463 322.163 155.159 322.895 154.553 323.415C153.955 323.926 153.131 324.182 152.083 324.182C150.965 324.182 150.076 323.792 149.418 323.012C148.75 322.215 148.417 321.131 148.417 319.762C148.417 318.375 148.759 317.292 149.444 316.512C150.102 315.767 150.969 315.394 152.044 315.394ZM159.573 315.563L161.432 318.93L163.382 315.563H165.189L162.186 320.516V324H160.652V320.516L157.753 315.563H159.573ZM175.826 315.563C176.779 315.563 177.52 315.797 178.049 316.265C178.586 316.724 178.855 317.387 178.855 318.254C178.855 319.112 178.586 319.775 178.049 320.243C177.52 320.702 176.779 320.932 175.826 320.932H174.396V324H172.849V315.563H175.826ZM175.826 319.593C176.302 319.593 176.662 319.467 176.905 319.216C177.147 318.965 177.269 318.644 177.269 318.254C177.269 317.855 177.147 317.53 176.905 317.279C176.662 317.019 176.302 316.889 175.826 316.889H174.396V319.593H175.826ZM185.178 315.394C185.742 315.394 186.257 315.489 186.725 315.68C187.193 315.862 187.596 316.135 187.934 316.499C188.645 317.262 189 318.354 189 319.775C189 321.205 188.645 322.31 187.934 323.09C187.258 323.818 186.335 324.182 185.165 324.182C184.004 324.182 183.085 323.809 182.409 323.064C181.699 322.293 181.343 321.196 181.343 319.775C181.343 318.336 181.699 317.236 182.409 316.473C183.077 315.754 184 315.394 185.178 315.394ZM187.414 319.801C187.414 318.83 187.211 318.085 186.803 317.565C186.405 317.036 185.863 316.772 185.178 316.772C184.494 316.772 183.948 317.036 183.54 317.565C183.133 318.085 182.929 318.83 182.929 319.801C182.929 320.763 183.133 321.504 183.54 322.024C183.948 322.535 184.494 322.791 185.178 322.791C185.863 322.791 186.405 322.535 186.803 322.024C187.211 321.504 187.414 320.763 187.414 319.801ZM193.849 322.661H197.32V324H192.315V315.563H193.849V322.661ZM200.239 315.563H201.773V324H200.239V315.563ZM208.717 315.394C209.237 315.394 209.687 315.459 210.069 315.589C210.45 315.71 210.779 315.884 211.057 316.109C211.603 316.551 211.958 317.171 212.123 317.968L210.485 318.267C210.346 317.825 210.129 317.47 209.835 317.201C209.549 316.924 209.189 316.785 208.756 316.785C208.166 316.785 207.69 317.032 207.326 317.526C206.936 318.063 206.741 318.809 206.741 319.762C206.741 320.707 206.914 321.448 207.261 321.985C207.607 322.514 208.08 322.778 208.678 322.778C209.276 322.778 209.726 322.635 210.03 322.349C210.333 322.054 210.485 321.677 210.485 321.218H212.136C212.136 322.163 211.832 322.895 211.226 323.415C210.628 323.926 209.804 324.182 208.756 324.182C207.638 324.182 206.749 323.792 206.091 323.012C205.423 322.215 205.09 321.131 205.09 319.762C205.09 318.375 205.432 317.292 206.117 316.512C206.775 315.767 207.642 315.394 208.717 315.394ZM216.246 315.563L218.105 318.93L220.055 315.563H221.862L218.859 320.516V324H217.325V320.516L214.426 315.563H216.246Z" fill="#2D2641"/>
<path d="M136.064 346.394C136.584 346.394 137.034 346.459 137.416 346.589C137.797 346.71 138.126 346.884 138.404 347.109C138.95 347.551 139.305 348.171 139.47 348.968L137.832 349.267C137.693 348.825 137.476 348.47 137.182 348.201C136.896 347.924 136.536 347.785 136.103 347.785C135.513 347.785 135.037 348.032 134.673 348.526C134.283 349.063 134.088 349.809 134.088 350.762C134.088 351.707 134.261 352.448 134.608 352.985C134.954 353.514 135.427 353.778 136.025 353.778C136.623 353.778 137.073 353.635 137.377 353.349C137.68 353.054 137.832 352.677 137.832 352.218H139.483C139.483 353.163 139.179 353.895 138.573 354.415C137.975 354.926 137.151 355.182 136.103 355.182C134.985 355.182 134.096 354.792 133.438 354.012C132.77 353.215 132.437 352.131 132.437 350.762C132.437 349.375 132.779 348.292 133.464 347.512C134.122 346.767 134.989 346.394 136.064 346.394ZM146.011 346.394C146.574 346.394 147.09 346.489 147.558 346.68C148.026 346.862 148.429 347.135 148.767 347.499C149.478 348.262 149.833 349.354 149.833 350.775C149.833 352.205 149.478 353.31 148.767 354.09C148.091 354.818 147.168 355.182 145.998 355.182C144.837 355.182 143.918 354.809 143.242 354.064C142.531 353.293 142.176 352.196 142.176 350.775C142.176 349.336 142.531 348.236 143.242 347.473C143.909 346.754 144.832 346.394 146.011 346.394ZM148.247 350.801C148.247 349.83 148.043 349.085 147.636 348.565C147.237 348.036 146.696 347.772 146.011 347.772C145.326 347.772 144.78 348.036 144.373 348.565C143.966 349.085 143.762 349.83 143.762 350.801C143.762 351.763 143.966 352.504 144.373 353.024C144.78 353.535 145.326 353.791 146.011 353.791C146.696 353.791 147.237 353.535 147.636 353.024C148.043 352.504 148.247 351.763 148.247 350.801ZM156.385 346.394C156.948 346.394 157.464 346.489 157.932 346.68C158.4 346.862 158.803 347.135 159.141 347.499C159.852 348.262 160.207 349.354 160.207 350.775C160.207 352.205 159.852 353.31 159.141 354.09C158.465 354.818 157.542 355.182 156.372 355.182C155.211 355.182 154.292 354.809 153.616 354.064C152.905 353.293 152.55 352.196 152.55 350.775C152.55 349.336 152.905 348.236 153.616 347.473C154.283 346.754 155.206 346.394 156.385 346.394ZM158.621 350.801C158.621 349.83 158.417 349.085 158.01 348.565C157.611 348.036 157.07 347.772 156.385 347.772C155.7 347.772 155.154 348.036 154.747 348.565C154.34 349.085 154.136 349.83 154.136 350.801C154.136 351.763 154.34 352.504 154.747 353.024C155.154 353.535 155.7 353.791 156.385 353.791C157.07 353.791 157.611 353.535 158.01 353.024C158.417 352.504 158.621 351.763 158.621 350.801ZM165.069 346.563V350.034L168.397 346.563H170.503L166.785 350.359L170.75 355H168.761L165.758 351.425L165.069 352.127V355H163.522V346.563H165.069ZM173.528 346.563H175.062V355H173.528V346.563ZM178.963 346.563H184.397V347.889H180.497V350.112H184.15V351.438H180.497V353.661H184.397V355H178.963V346.563ZM192.526 348.89C192.388 348.153 191.868 347.785 190.966 347.785C190.524 347.785 190.178 347.876 189.926 348.058C189.684 348.231 189.562 348.444 189.562 348.695C189.562 348.946 189.64 349.146 189.796 349.293C189.961 349.432 190.212 349.562 190.55 349.683L192.383 350.398C193.007 350.641 193.488 350.948 193.826 351.321C194.164 351.685 194.333 352.144 194.333 352.699C194.333 353.462 194.047 354.068 193.475 354.519C192.903 354.961 192.089 355.182 191.031 355.182C190.095 355.182 189.337 354.952 188.756 354.493C188.106 353.99 187.764 353.28 187.729 352.361H189.25C189.25 353.054 189.61 353.492 190.329 353.674C190.546 353.735 190.832 353.765 191.187 353.765C191.543 353.765 191.872 353.678 192.175 353.505C192.479 353.323 192.63 353.085 192.63 352.79C192.63 352.487 192.548 352.257 192.383 352.101C192.219 351.936 191.95 351.785 191.577 351.646L189.9 350.983C189.25 350.732 188.752 350.437 188.405 350.099C188.059 349.761 187.885 349.293 187.885 348.695C187.885 347.993 188.158 347.438 188.704 347.031C189.259 346.606 190.009 346.394 190.953 346.394C191.907 346.394 192.639 346.615 193.15 347.057C193.67 347.49 193.969 348.101 194.047 348.89H192.526Z" fill="#2D2641"/>
<path d="M135.207 401.394C135.727 401.394 136.177 401.459 136.559 401.589C136.94 401.71 137.269 401.884 137.547 402.109C138.093 402.551 138.448 403.171 138.613 403.968L136.975 404.267C136.836 403.825 136.619 403.47 136.325 403.201C136.039 402.924 135.679 402.785 135.246 402.785C134.656 402.785 134.18 403.032 133.816 403.526C133.426 404.063 133.231 404.809 133.231 405.762C133.231 406.707 133.404 407.448 133.751 407.985C134.097 408.514 134.57 408.778 135.168 408.778C135.766 408.778 136.216 408.635 136.52 408.349C136.823 408.054 136.975 407.677 136.975 407.218H138.626C138.626 408.163 138.322 408.895 137.716 409.415C137.118 409.926 136.294 410.182 135.246 410.182C134.128 410.182 133.239 409.792 132.581 409.012C131.913 408.215 131.58 407.131 131.58 405.762C131.58 404.375 131.922 403.292 132.607 402.512C133.265 401.767 134.132 401.394 135.207 401.394ZM145.154 401.394C145.717 401.394 146.233 401.489 146.701 401.68C147.169 401.862 147.572 402.135 147.91 402.499C148.621 403.262 148.976 404.354 148.976 405.775C148.976 407.205 148.621 408.31 147.91 409.09C147.234 409.818 146.311 410.182 145.141 410.182C143.98 410.182 143.061 409.809 142.385 409.064C141.674 408.293 141.319 407.196 141.319 405.775C141.319 404.336 141.674 403.236 142.385 402.473C143.052 401.754 143.975 401.394 145.154 401.394ZM147.39 405.801C147.39 404.83 147.186 404.085 146.779 403.565C146.38 403.036 145.839 402.772 145.154 402.772C144.469 402.772 143.923 403.036 143.516 403.565C143.109 404.085 142.905 404.83 142.905 405.801C142.905 406.763 143.109 407.504 143.516 408.024C143.923 408.535 144.469 408.791 145.154 408.791C145.839 408.791 146.38 408.535 146.779 408.024C147.186 407.504 147.39 406.763 147.39 405.801ZM153.942 401.563L157.66 407.543V401.563H159.194V410H157.634L153.799 403.812V410H152.265V401.563H153.942ZM161.978 401.563H168.738V402.889H166.125V410H164.591V402.889H161.978V401.563ZM172.894 401.563H174.818L177.587 410H175.962L175.377 408.18H172.244L171.646 410H170.021L172.894 401.563ZM172.634 407.023H175L173.83 403.396L172.634 407.023ZM183.611 401.394C184.131 401.394 184.582 401.459 184.963 401.589C185.344 401.71 185.674 401.884 185.951 402.109C186.497 402.551 186.852 403.171 187.017 403.968L185.379 404.267C185.24 403.825 185.024 403.47 184.729 403.201C184.443 402.924 184.083 402.785 183.65 402.785C183.061 402.785 182.584 403.032 182.22 403.526C181.83 404.063 181.635 404.809 181.635 405.762C181.635 406.707 181.808 407.448 182.155 407.985C182.502 408.514 182.974 408.778 183.572 408.778C184.17 408.778 184.621 408.635 184.924 408.349C185.227 408.054 185.379 407.677 185.379 407.218H187.03C187.03 408.163 186.727 408.895 186.12 409.415C185.522 409.926 184.699 410.182 183.65 410.182C182.532 410.182 181.644 409.792 180.985 409.012C180.318 408.215 179.984 407.131 179.984 405.762C179.984 404.375 180.326 403.292 181.011 402.512C181.67 401.767 182.536 401.394 183.611 401.394ZM189.19 401.563H195.95V402.889H193.337V410H191.803V402.889H189.19V401.563Z" fill="#837D88"/>
<path d="M146.763 454.89C146.624 454.153 146.104 453.785 145.203 453.785C144.761 453.785 144.414 453.876 144.163 454.058C143.92 454.231 143.799 454.444 143.799 454.695C143.799 454.946 143.877 455.146 144.033 455.293C144.197 455.432 144.449 455.562 144.787 455.683L146.62 456.398C147.244 456.641 147.725 456.948 148.063 457.321C148.401 457.685 148.57 458.144 148.57 458.699C148.57 459.462 148.284 460.068 147.712 460.519C147.14 460.961 146.325 461.182 145.268 461.182C144.332 461.182 143.573 460.952 142.993 460.493C142.343 459.99 142 459.28 141.966 458.361H143.487C143.487 459.054 143.846 459.492 144.566 459.674C144.782 459.735 145.068 459.765 145.424 459.765C145.779 459.765 146.108 459.678 146.412 459.505C146.715 459.323 146.867 459.085 146.867 458.79C146.867 458.487 146.784 458.257 146.62 458.101C146.455 457.936 146.186 457.785 145.814 457.646L144.137 456.983C143.487 456.732 142.988 456.437 142.642 456.099C142.295 455.761 142.122 455.293 142.122 454.695C142.122 453.993 142.395 453.438 142.941 453.031C143.495 452.606 144.245 452.394 145.19 452.394C146.143 452.394 146.875 452.615 147.387 453.057C147.907 453.49 148.206 454.101 148.284 454.89H146.763ZM154.07 452.563H155.994L158.763 461H157.138L156.553 459.18H153.42L152.822 461H151.197L154.07 452.563ZM153.81 458.023H156.176L155.006 454.396L153.81 458.023ZM163.291 459.661H166.762V461H161.757V452.563H163.291V459.661ZM169.668 452.563H175.102V453.889H171.202V456.112H174.855V457.438H171.202V459.661H175.102V461H169.668V452.563ZM183.231 454.89C183.093 454.153 182.573 453.785 181.671 453.785C181.229 453.785 180.883 453.876 180.631 454.058C180.389 454.231 180.267 454.444 180.267 454.695C180.267 454.946 180.345 455.146 180.501 455.293C180.666 455.432 180.917 455.562 181.255 455.683L183.088 456.398C183.712 456.641 184.193 456.948 184.531 457.321C184.869 457.685 185.038 458.144 185.038 458.699C185.038 459.462 184.752 460.068 184.18 460.519C183.608 460.961 182.794 461.182 181.736 461.182C180.8 461.182 180.042 460.952 179.461 460.493C178.811 459.99 178.469 459.28 178.434 458.361H179.955C179.955 459.054 180.315 459.492 181.034 459.674C181.251 459.735 181.537 459.765 181.892 459.765C182.248 459.765 182.577 459.678 182.88 459.505C183.184 459.323 183.335 459.085 183.335 458.79C183.335 458.487 183.253 458.257 183.088 458.101C182.924 457.936 182.655 457.785 182.282 457.646L180.605 456.983C179.955 456.732 179.457 456.437 179.11 456.099C178.764 455.761 178.59 455.293 178.59 454.695C178.59 453.993 178.863 453.438 179.409 453.031C179.964 452.606 180.714 452.394 181.658 452.394C182.612 452.394 183.344 452.615 183.855 453.057C184.375 453.49 184.674 454.101 184.752 454.89H183.231Z" fill="#2D2641"/>
<path d="M136.376 485.89C136.237 485.153 135.717 484.785 134.816 484.785C134.374 484.785 134.027 484.876 133.776 485.058C133.533 485.231 133.412 485.444 133.412 485.695C133.412 485.946 133.49 486.146 133.646 486.293C133.811 486.432 134.062 486.562 134.4 486.683L136.233 487.398C136.857 487.641 137.338 487.948 137.676 488.321C138.014 488.685 138.183 489.144 138.183 489.699C138.183 490.462 137.897 491.068 137.325 491.519C136.753 491.961 135.938 492.182 134.881 492.182C133.945 492.182 133.187 491.952 132.606 491.493C131.956 490.99 131.614 490.28 131.579 489.361H133.1C133.1 490.054 133.46 490.492 134.179 490.674C134.396 490.735 134.682 490.765 135.037 490.765C135.392 490.765 135.722 490.678 136.025 490.505C136.328 490.323 136.48 490.085 136.48 489.79C136.48 489.487 136.398 489.257 136.233 489.101C136.068 488.936 135.8 488.785 135.427 488.646L133.75 487.983C133.1 487.732 132.602 487.437 132.255 487.099C131.908 486.761 131.735 486.293 131.735 485.695C131.735 484.993 132.008 484.438 132.554 484.031C133.109 483.606 133.858 483.394 134.803 483.394C135.756 483.394 136.489 483.615 137 484.057C137.52 484.49 137.819 485.101 137.897 485.89H136.376ZM143.137 483.563V488.815C143.137 489.508 143.31 490.007 143.657 490.31C144.012 490.613 144.467 490.765 145.022 490.765C145.577 490.765 146.027 490.613 146.374 490.31C146.729 490.007 146.907 489.508 146.907 488.815V483.563H148.441V488.815C148.441 489.89 148.142 490.722 147.544 491.311C146.946 491.892 146.105 492.182 145.022 492.182C143.939 492.182 143.098 491.892 142.5 491.311C141.902 490.722 141.603 489.89 141.603 488.815V483.563H143.137ZM155.147 483.563C156.1 483.563 156.841 483.797 157.37 484.265C157.907 484.724 158.176 485.387 158.176 486.254C158.176 487.112 157.907 487.775 157.37 488.243C156.841 488.702 156.1 488.932 155.147 488.932H153.717V492H152.17V483.563H155.147ZM155.147 487.593C155.623 487.593 155.983 487.467 156.226 487.216C156.468 486.965 156.59 486.644 156.59 486.254C156.59 485.855 156.468 485.53 156.226 485.279C155.983 485.019 155.623 484.889 155.147 484.889H153.717V487.593H155.147ZM164.2 483.563C165.154 483.563 165.895 483.797 166.423 484.265C166.961 484.724 167.229 485.387 167.229 486.254C167.229 487.112 166.961 487.775 166.423 488.243C165.895 488.702 165.154 488.932 164.2 488.932H162.77V492H161.223V483.563H164.2ZM164.2 487.593C164.677 487.593 165.037 487.467 165.279 487.216C165.522 486.965 165.643 486.644 165.643 486.254C165.643 485.855 165.522 485.53 165.279 485.279C165.037 485.019 164.677 484.889 164.2 484.889H162.77V487.593H164.2ZM173.553 483.394C174.116 483.394 174.632 483.489 175.1 483.68C175.568 483.862 175.971 484.135 176.309 484.499C177.02 485.262 177.375 486.354 177.375 487.775C177.375 489.205 177.02 490.31 176.309 491.09C175.633 491.818 174.71 492.182 173.54 492.182C172.379 492.182 171.46 491.809 170.784 491.064C170.073 490.293 169.718 489.196 169.718 487.775C169.718 486.336 170.073 485.236 170.784 484.473C171.451 483.754 172.374 483.394 173.553 483.394ZM175.789 487.801C175.789 486.83 175.585 486.085 175.178 485.565C174.779 485.036 174.238 484.772 173.553 484.772C172.868 484.772 172.322 485.036 171.915 485.565C171.508 486.085 171.304 486.83 171.304 487.801C171.304 488.763 171.508 489.504 171.915 490.024C172.322 490.535 172.868 490.791 173.553 490.791C174.238 490.791 174.779 490.535 175.178 490.024C175.585 489.504 175.789 488.763 175.789 487.801ZM186.956 486.15C186.956 486.748 186.787 487.259 186.449 487.684C186.111 488.109 185.626 488.403 184.993 488.568L187.255 492H185.253L183.394 488.711H182.224V492H180.69V483.563H183.81C184.807 483.563 185.582 483.801 186.137 484.278C186.683 484.737 186.956 485.361 186.956 486.15ZM183.667 487.684C184.23 487.684 184.655 487.558 184.941 487.307C185.227 487.047 185.37 486.709 185.37 486.293C185.37 485.868 185.24 485.53 184.98 485.279C184.72 485.019 184.33 484.889 183.81 484.889H182.224V487.684H183.667ZM189.425 483.563H196.185V484.889H193.572V492H192.038V484.889H189.425V483.563Z" fill="#2D2641"/>
<path d="M129.711 521.661H133.182V523H128.177V514.563H129.711V521.661ZM136.101 514.563H137.635V523H136.101V514.563ZM142.225 514.563L144.279 521.076L146.359 514.563H147.971L145.072 523H143.46L140.6 514.563H142.225ZM150.932 514.563H156.366V515.889H152.466V518.112H156.119V519.438H152.466V521.661H156.366V523H150.932V514.563ZM167.88 514.394C168.4 514.394 168.85 514.459 169.232 514.589C169.613 514.71 169.942 514.884 170.22 515.109C170.766 515.551 171.121 516.171 171.286 516.968L169.648 517.267C169.509 516.825 169.292 516.47 168.998 516.201C168.712 515.924 168.352 515.785 167.919 515.785C167.329 515.785 166.853 516.032 166.489 516.526C166.099 517.063 165.904 517.809 165.904 518.762C165.904 519.707 166.077 520.448 166.424 520.985C166.77 521.514 167.243 521.778 167.841 521.778C168.439 521.778 168.889 521.635 169.193 521.349C169.496 521.054 169.648 520.677 169.648 520.218H171.299C171.299 521.163 170.995 521.895 170.389 522.415C169.791 522.926 168.967 523.182 167.919 523.182C166.801 523.182 165.912 522.792 165.254 522.012C164.586 521.215 164.253 520.131 164.253 518.762C164.253 517.375 164.595 516.292 165.28 515.512C165.938 514.767 166.805 514.394 167.88 514.394ZM176.124 514.563V518.086H179.803V514.563H181.337V523H179.803V519.425H176.124V523H174.59V514.563H176.124ZM187.219 514.563H189.143L191.912 523H190.287L189.702 521.18H186.569L185.971 523H184.346L187.219 514.563ZM186.959 520.023H189.325L188.155 516.396L186.959 520.023ZM193.191 514.563H199.951V515.889H197.338V523H195.804V515.889H193.191V514.563Z" fill="#2D2641"/>
<path d="M139.573 569.394C140.137 569.394 140.652 569.489 141.12 569.68C141.588 569.862 141.991 570.135 142.329 570.499C143.04 571.262 143.395 572.354 143.395 573.775C143.395 575.205 143.04 576.31 142.329 577.09C141.653 577.818 140.73 578.182 139.56 578.182C138.399 578.182 137.48 577.809 136.804 577.064C136.094 576.293 135.738 575.196 135.738 573.775C135.738 572.336 136.094 571.236 136.804 570.473C137.472 569.754 138.395 569.394 139.573 569.394ZM141.809 573.801C141.809 572.83 141.606 572.085 141.198 571.565C140.8 571.036 140.258 570.772 139.573 570.772C138.889 570.772 138.343 571.036 137.935 571.565C137.528 572.085 137.324 572.83 137.324 573.801C137.324 574.763 137.528 575.504 137.935 576.024C138.343 576.535 138.889 576.791 139.573 576.791C140.258 576.791 140.8 576.535 141.198 576.024C141.606 575.504 141.809 574.763 141.809 573.801ZM145.579 569.563H152.339V570.889H149.726V578H148.192V570.889H145.579V569.563ZM156.663 569.563V573.086H160.342V569.563H161.876V578H160.342V574.425H156.663V578H155.129V569.563H156.663ZM165.795 569.563H171.229V570.889H167.329V573.112H170.982V574.438H167.329V576.661H171.229V578H165.795V569.563ZM181.191 572.15C181.191 572.748 181.022 573.259 180.684 573.684C180.346 574.109 179.861 574.403 179.228 574.568L181.49 578H179.488L177.629 574.711H176.459V578H174.925V569.563H178.045C179.042 569.563 179.818 569.801 180.372 570.278C180.918 570.737 181.191 571.361 181.191 572.15ZM177.902 573.684C178.466 573.684 178.89 573.558 179.176 573.307C179.462 573.047 179.605 572.709 179.605 572.293C179.605 571.868 179.475 571.53 179.215 571.279C178.955 571.019 178.565 570.889 178.045 570.889H176.459V573.684H177.902ZM189.225 571.89C189.086 571.153 188.566 570.785 187.665 570.785C187.223 570.785 186.876 570.876 186.625 571.058C186.382 571.231 186.261 571.444 186.261 571.695C186.261 571.946 186.339 572.146 186.495 572.293C186.659 572.432 186.911 572.562 187.249 572.683L189.082 573.398C189.706 573.641 190.187 573.948 190.525 574.321C190.863 574.685 191.032 575.144 191.032 575.699C191.032 576.462 190.746 577.068 190.174 577.519C189.602 577.961 188.787 578.182 187.73 578.182C186.794 578.182 186.035 577.952 185.455 577.493C184.805 576.99 184.462 576.28 184.428 575.361H185.949C185.949 576.054 186.308 576.492 187.028 576.674C187.244 576.735 187.53 576.765 187.886 576.765C188.241 576.765 188.57 576.678 188.874 576.505C189.177 576.323 189.329 576.085 189.329 575.79C189.329 575.487 189.246 575.257 189.082 575.101C188.917 574.936 188.648 574.785 188.276 574.646L186.599 573.983C185.949 573.732 185.45 573.437 185.104 573.099C184.757 572.761 184.584 572.293 184.584 571.695C184.584 570.993 184.857 570.438 185.403 570.031C185.957 569.606 186.707 569.394 187.652 569.394C188.605 569.394 189.337 569.615 189.849 570.057C190.369 570.49 190.668 571.101 190.746 571.89H189.225Z" fill="#837D88"/>
<path d="M134.921 620.394C135.441 620.394 135.892 620.459 136.273 620.589C136.654 620.71 136.984 620.884 137.261 621.109C137.807 621.551 138.162 622.171 138.327 622.968L136.689 623.267C136.55 622.825 136.334 622.47 136.039 622.201C135.753 621.924 135.393 621.785 134.96 621.785C134.371 621.785 133.894 622.032 133.53 622.526C133.14 623.063 132.945 623.809 132.945 624.762C132.945 625.707 133.118 626.448 133.465 626.985C133.812 627.514 134.284 627.778 134.882 627.778C135.48 627.778 135.931 627.635 136.234 627.349C136.537 627.054 136.689 626.677 136.689 626.218H138.34C138.34 627.163 138.037 627.895 137.43 628.415C136.832 628.926 136.009 629.182 134.96 629.182C133.842 629.182 132.954 628.792 132.295 628.012C131.628 627.215 131.294 626.131 131.294 624.762C131.294 623.375 131.636 622.292 132.321 621.512C132.98 620.767 133.846 620.394 134.921 620.394ZM143.581 620.563H145.505L148.274 629H146.649L146.064 627.18H142.931L142.333 629H140.708L143.581 620.563ZM143.321 626.023H145.687L144.517 622.396L143.321 626.023ZM157.535 623.15C157.535 623.748 157.366 624.259 157.028 624.684C156.69 625.109 156.205 625.403 155.572 625.568L157.834 629H155.832L153.973 625.711H152.803V629H151.269V620.563H154.389C155.386 620.563 156.161 620.801 156.716 621.278C157.262 621.737 157.535 622.361 157.535 623.15ZM154.246 624.684C154.809 624.684 155.234 624.558 155.52 624.307C155.806 624.047 155.949 623.709 155.949 623.293C155.949 622.868 155.819 622.53 155.559 622.279C155.299 622.019 154.909 621.889 154.389 621.889H152.803V624.684H154.246ZM161.122 620.563H166.556V621.889H162.656V624.112H166.309V625.438H162.656V627.661H166.556V629H161.122V620.563ZM170.239 620.563H175.673V621.889H171.773V624.112H175.426V625.438H171.773V627.661H175.673V629H170.239V620.563ZM185.636 623.15C185.636 623.748 185.467 624.259 185.129 624.684C184.791 625.109 184.305 625.403 183.673 625.568L185.935 629H183.933L182.074 625.711H180.904V629H179.37V620.563H182.49C183.486 620.563 184.262 620.801 184.817 621.278C185.363 621.737 185.636 622.361 185.636 623.15ZM182.347 624.684C182.91 624.684 183.335 624.558 183.621 624.307C183.907 624.047 184.05 623.709 184.05 623.293C184.05 622.868 183.92 622.53 183.66 622.279C183.4 622.019 183.01 621.889 182.49 621.889H180.904V624.684H182.347ZM193.669 622.89C193.53 622.153 193.01 621.785 192.109 621.785C191.667 621.785 191.32 621.876 191.069 622.058C190.826 622.231 190.705 622.444 190.705 622.695C190.705 622.946 190.783 623.146 190.939 623.293C191.104 623.432 191.355 623.562 191.693 623.683L193.526 624.398C194.15 624.641 194.631 624.948 194.969 625.321C195.307 625.685 195.476 626.144 195.476 626.699C195.476 627.462 195.19 628.068 194.618 628.519C194.046 628.961 193.231 629.182 192.174 629.182C191.238 629.182 190.48 628.952 189.899 628.493C189.249 627.99 188.907 627.28 188.872 626.361H190.393C190.393 627.054 190.753 627.492 191.472 627.674C191.689 627.735 191.975 627.765 192.33 627.765C192.685 627.765 193.015 627.678 193.318 627.505C193.621 627.323 193.773 627.085 193.773 626.79C193.773 626.487 193.691 626.257 193.526 626.101C193.361 625.936 193.093 625.785 192.72 625.646L191.043 624.983C190.393 624.732 189.895 624.437 189.548 624.099C189.201 623.761 189.028 623.293 189.028 622.695C189.028 621.993 189.301 621.438 189.847 621.031C190.402 620.606 191.151 620.394 192.096 620.394C193.049 620.394 193.782 620.615 194.293 621.057C194.813 621.49 195.112 622.101 195.19 622.89H193.669Z" fill="#2D2641"/>
<path d="M144.588 651.563C145.542 651.563 146.283 651.797 146.811 652.265C147.349 652.724 147.617 653.387 147.617 654.254C147.617 655.112 147.349 655.775 146.811 656.243C146.283 656.702 145.542 656.932 144.588 656.932H143.158V660H141.611V651.563H144.588ZM144.588 655.593C145.065 655.593 145.425 655.467 145.667 655.216C145.91 654.965 146.031 654.644 146.031 654.254C146.031 653.855 145.91 653.53 145.667 653.279C145.425 653.019 145.065 652.889 144.588 652.889H143.158V655.593H144.588ZM156.97 654.15C156.97 654.748 156.801 655.259 156.463 655.684C156.125 656.109 155.64 656.403 155.007 656.568L157.269 660H155.267L153.408 656.711H152.238V660H150.704V651.563H153.824C154.821 651.563 155.596 651.801 156.151 652.278C156.697 652.737 156.97 653.361 156.97 654.15ZM153.681 655.684C154.244 655.684 154.669 655.558 154.955 655.307C155.241 655.047 155.384 654.709 155.384 654.293C155.384 653.868 155.254 653.53 154.994 653.279C154.734 653.019 154.344 652.889 153.824 652.889H152.238V655.684H153.681ZM160.557 651.563H165.991V652.889H162.091V655.112H165.744V656.438H162.091V658.661H165.991V660H160.557V651.563ZM174.121 653.89C173.982 653.153 173.462 652.785 172.561 652.785C172.119 652.785 171.772 652.876 171.521 653.058C171.278 653.231 171.157 653.444 171.157 653.695C171.157 653.946 171.235 654.146 171.391 654.293C171.555 654.432 171.807 654.562 172.145 654.683L173.978 655.398C174.602 655.641 175.083 655.948 175.421 656.321C175.759 656.685 175.928 657.144 175.928 657.699C175.928 658.462 175.642 659.068 175.07 659.519C174.498 659.961 173.683 660.182 172.626 660.182C171.69 660.182 170.931 659.952 170.351 659.493C169.701 658.99 169.358 658.28 169.324 657.361H170.845C170.845 658.054 171.204 658.492 171.924 658.674C172.14 658.735 172.426 658.765 172.782 658.765C173.137 658.765 173.466 658.678 173.77 658.505C174.073 658.323 174.225 658.085 174.225 657.79C174.225 657.487 174.142 657.257 173.978 657.101C173.813 656.936 173.544 656.785 173.172 656.646L171.495 655.983C170.845 655.732 170.346 655.437 170 655.099C169.653 654.761 169.48 654.293 169.48 653.695C169.48 652.993 169.753 652.438 170.299 652.031C170.853 651.606 171.603 651.394 172.548 651.394C173.501 651.394 174.233 651.615 174.745 652.057C175.265 652.49 175.564 653.101 175.642 653.89H174.121ZM183.911 653.89C183.772 653.153 183.252 652.785 182.351 652.785C181.909 652.785 181.562 652.876 181.311 653.058C181.068 653.231 180.947 653.444 180.947 653.695C180.947 653.946 181.025 654.146 181.181 654.293C181.345 654.432 181.597 654.562 181.935 654.683L183.768 655.398C184.392 655.641 184.873 655.948 185.211 656.321C185.549 656.685 185.718 657.144 185.718 657.699C185.718 658.462 185.432 659.068 184.86 659.519C184.288 659.961 183.473 660.182 182.416 660.182C181.48 660.182 180.721 659.952 180.141 659.493C179.491 658.99 179.148 658.28 179.114 657.361H180.635C180.635 658.054 180.994 658.492 181.714 658.674C181.93 658.735 182.216 658.765 182.572 658.765C182.927 658.765 183.256 658.678 183.56 658.505C183.863 658.323 184.015 658.085 184.015 657.79C184.015 657.487 183.932 657.257 183.768 657.101C183.603 656.936 183.334 656.785 182.962 656.646L181.285 655.983C180.635 655.732 180.136 655.437 179.79 655.099C179.443 654.761 179.27 654.293 179.27 653.695C179.27 652.993 179.543 652.438 180.089 652.031C180.643 651.606 181.393 651.394 182.338 651.394C183.291 651.394 184.023 651.615 184.535 652.057C185.055 652.49 185.354 653.101 185.432 653.89H183.911Z" fill="#2D2641"/>
<path d="M131.121 689.661H134.592V691H129.587V682.563H131.121V689.661ZM137.511 682.563H139.045V691H137.511V682.563ZM145.988 682.394C146.508 682.394 146.959 682.459 147.34 682.589C147.721 682.71 148.051 682.884 148.328 683.109C148.874 683.551 149.229 684.171 149.394 684.968L147.756 685.267C147.617 684.825 147.401 684.47 147.106 684.201C146.82 683.924 146.46 683.785 146.027 683.785C145.438 683.785 144.961 684.032 144.597 684.526C144.207 685.063 144.012 685.809 144.012 686.762C144.012 687.707 144.185 688.448 144.532 688.985C144.879 689.514 145.351 689.778 145.949 689.778C146.547 689.778 146.998 689.635 147.301 689.349C147.604 689.054 147.756 688.677 147.756 688.218H149.407C149.407 689.163 149.104 689.895 148.497 690.415C147.899 690.926 147.076 691.182 146.027 691.182C144.909 691.182 144.021 690.792 143.362 690.012C142.695 689.215 142.361 688.131 142.361 686.762C142.361 685.375 142.703 684.292 143.388 683.512C144.047 682.767 144.913 682.394 145.988 682.394ZM152.685 682.563H158.119V683.889H154.219V686.112H157.872V687.438H154.219V689.661H158.119V691H152.685V682.563ZM163.466 682.563L167.184 688.543V682.563H168.718V691H167.158L163.323 684.812V691H161.789V682.563H163.466ZM177.067 684.89C176.928 684.153 176.408 683.785 175.507 683.785C175.065 683.785 174.718 683.876 174.467 684.058C174.224 684.231 174.103 684.444 174.103 684.695C174.103 684.946 174.181 685.146 174.337 685.293C174.501 685.432 174.753 685.562 175.091 685.683L176.924 686.398C177.548 686.641 178.029 686.948 178.367 687.321C178.705 687.685 178.874 688.144 178.874 688.699C178.874 689.462 178.588 690.068 178.016 690.519C177.444 690.961 176.629 691.182 175.572 691.182C174.636 691.182 173.877 690.952 173.297 690.493C172.647 689.99 172.304 689.28 172.27 688.361H173.791C173.791 689.054 174.15 689.492 174.87 689.674C175.086 689.735 175.372 689.765 175.728 689.765C176.083 689.765 176.412 689.678 176.716 689.505C177.019 689.323 177.171 689.085 177.171 688.79C177.171 688.487 177.088 688.257 176.924 688.101C176.759 687.936 176.49 687.785 176.118 687.646L174.441 686.983C173.791 686.732 173.292 686.437 172.946 686.099C172.599 685.761 172.426 685.293 172.426 684.695C172.426 683.993 172.699 683.438 173.245 683.031C173.799 682.606 174.549 682.394 175.494 682.394C176.447 682.394 177.179 682.615 177.691 683.057C178.211 683.49 178.51 684.101 178.588 684.89H177.067ZM182.411 682.563H187.845V683.889H183.945V686.112H187.598V687.438H183.945V689.661H187.845V691H182.411V682.563ZM195.974 684.89C195.835 684.153 195.315 683.785 194.414 683.785C193.972 683.785 193.625 683.876 193.374 684.058C193.131 684.231 193.01 684.444 193.01 684.695C193.01 684.946 193.088 685.146 193.244 685.293C193.409 685.432 193.66 685.562 193.998 685.683L195.831 686.398C196.455 686.641 196.936 686.948 197.274 687.321C197.612 687.685 197.781 688.144 197.781 688.699C197.781 689.462 197.495 690.068 196.923 690.519C196.351 690.961 195.536 691.182 194.479 691.182C193.543 691.182 192.785 690.952 192.204 690.493C191.554 689.99 191.212 689.28 191.177 688.361H192.698C192.698 689.054 193.058 689.492 193.777 689.674C193.994 689.735 194.28 689.765 194.635 689.765C194.99 689.765 195.32 689.678 195.623 689.505C195.926 689.323 196.078 689.085 196.078 688.79C196.078 688.487 195.996 688.257 195.831 688.101C195.666 687.936 195.398 687.785 195.025 687.646L193.348 686.983C192.698 686.732 192.2 686.437 191.853 686.099C191.506 685.761 191.333 685.293 191.333 684.695C191.333 683.993 191.606 683.438 192.152 683.031C192.707 682.606 193.456 682.394 194.401 682.394C195.354 682.394 196.087 682.615 196.598 683.057C197.118 683.49 197.417 684.101 197.495 684.89H195.974Z" fill="#2D2641"/>
</g>
<defs>
<clipPath id="clip0_0_151">
<rect width="327" height="694" fill="white"/>
</clipPath>
</defs>
</svg>
