<svg width="36" height="10" viewBox="0 0 36 10" fill="none" xmlns="http://www.w3.org/2000/svg">
<path d="M0.696305 0.562999H4.1023C5.03831 0.562999 5.76197 0.783999 6.2733 1.226C6.75864 1.63333 7.0013 2.15767 7.0013 2.799C7.0013 3.27567 6.86697 3.683 6.59831 4.021C6.33831 4.359 5.96997 4.59733 5.4933 4.736C5.96997 4.83133 6.3643 5.048 6.67631 5.386C6.98831 5.71533 7.14431 6.14 7.14431 6.66C7.14431 7.7 6.62864 8.41067 5.59731 8.792C5.2073 8.93067 4.7133 9 4.1153 9H0.696305V0.562999ZM4.0763 7.661C4.5703 7.661 4.92564 7.56133 5.14231 7.362C5.36764 7.16267 5.48031 6.89833 5.48031 6.569C5.48031 6.23967 5.3633 5.97533 5.1293 5.776C4.90397 5.568 4.55297 5.464 4.0763 5.464H2.2303V7.661H4.0763ZM2.2303 4.125H4.0373C4.49664 4.125 4.8433 4.02533 5.0773 3.826C5.3113 3.62667 5.4283 3.358 5.4283 3.02C5.4283 2.67333 5.3113 2.40033 5.0773 2.201C4.85197 1.993 4.50964 1.889 4.0503 1.889H2.2303V4.125ZM12.16 7.661H15.631V9H10.626V0.562999H12.16V7.661ZM21.7868 0.393999C22.3502 0.393999 22.8658 0.489333 23.3338 0.679999C23.8018 0.862 24.2048 1.135 24.5428 1.499C25.2535 2.26167 25.6088 3.35367 25.6088 4.775C25.6088 6.205 25.2535 7.31 24.5428 8.09C23.8668 8.818 22.9438 9.182 21.7738 9.182C20.6125 9.182 19.6938 8.80933 19.0178 8.064C18.3072 7.29267 17.9518 6.19633 17.9518 4.775C17.9518 3.33633 18.3072 2.23567 19.0178 1.473C19.6852 0.753666 20.6082 0.393999 21.7868 0.393999ZM24.0228 4.801C24.0228 3.83033 23.8192 3.085 23.4118 2.565C23.0132 2.03633 22.4715 1.772 21.7868 1.772C21.1022 1.772 20.5562 2.03633 20.1488 2.565C19.7415 3.085 19.5378 3.83033 19.5378 4.801C19.5378 5.763 19.7415 6.504 20.1488 7.024C20.5562 7.53533 21.1022 7.791 21.7868 7.791C22.4715 7.791 23.0132 7.53533 23.4118 7.024C23.8192 6.504 24.0228 5.763 24.0228 4.801ZM34.0978 7.661C33.7338 8.675 33.0362 9.182 32.0048 9.182C30.9475 9.182 30.0765 8.78333 29.3918 7.986C28.6812 7.16267 28.3258 6.10967 28.3258 4.827C28.3258 3.475 28.7072 2.39167 29.4698 1.577C30.2065 0.788333 31.1555 0.393999 32.3168 0.393999C33.1055 0.393999 33.7642 0.567333 34.2928 0.913999C34.8302 1.252 35.2505 1.78933 35.5538 2.526L33.9808 2.89C33.5215 2.15333 32.9408 1.785 32.2388 1.785C31.5975 1.785 31.0645 2.058 30.6398 2.604C30.1978 3.15867 29.9768 3.89967 29.9768 4.827C29.9768 5.70233 30.1762 6.413 30.5748 6.959C30.9648 7.49633 31.4848 7.765 32.1348 7.765C32.6895 7.765 33.1445 7.58733 33.4998 7.232C33.8638 6.868 34.0458 6.36967 34.0458 5.737V5.685L32.1478 5.646V4.658H35.5148V9H34.2668L34.0978 7.661Z" fill="#837D88"/>
</svg>
