<svg width="110" height="10" viewBox="0 0 110 10" fill="none" xmlns="http://www.w3.org/2000/svg">
<path d="M1.91341 0.562999V4.086H5.59241V0.562999H7.12641V9H5.59241V5.425H1.91341V9H0.37941V0.562999H1.91341ZM14.2951 0.393999C14.8585 0.393999 15.3741 0.489333 15.8421 0.679999C16.3101 0.862 16.7131 1.135 17.0511 1.499C17.7618 2.26167 18.1171 3.35367 18.1171 4.775C18.1171 6.205 17.7618 7.31 17.0511 8.09C16.3751 8.818 15.4521 9.182 14.2821 9.182C13.1208 9.182 12.2021 8.80933 11.5261 8.064C10.8155 7.29267 10.4601 6.19633 10.4601 4.775C10.4601 3.33633 10.8155 2.23567 11.5261 1.473C12.1935 0.753666 13.1165 0.393999 14.2951 0.393999ZM16.5311 4.801C16.5311 3.83033 16.3275 3.085 15.9201 2.565C15.5215 2.03633 14.9798 1.772 14.2951 1.772C13.6105 1.772 13.0645 2.03633 12.6571 2.565C12.2498 3.085 12.0461 3.83033 12.0461 4.801C12.0461 5.763 12.2498 6.504 12.6571 7.024C13.0645 7.53533 13.6105 7.791 14.2951 7.791C14.9798 7.791 15.5215 7.53533 15.9201 7.024C16.3275 6.504 16.5311 5.763 16.5311 4.801ZM22.1991 0.562999L24.0581 6.972L25.8651 1.122H26.9051L28.8161 6.998L30.7921 0.562999H32.5211L29.6221 9H28.0101L26.4241 4.242L24.8511 9H23.2391L20.4831 0.562999H22.1991ZM41.0429 0.562999L42.9019 6.972L44.7089 1.122H45.7489L47.6599 6.998L49.6359 0.562999H51.3649L48.4659 9H46.8539L45.2679 4.242L43.6949 9H42.0829L39.3269 0.562999H41.0429ZM54.3186 0.562999H59.7526V1.889H55.8526V4.112H59.5056V5.438H55.8526V7.661H59.7526V9H54.3186V0.562999ZM69.0038 0.562999L70.8628 6.972L72.6698 1.122H73.7098L75.6208 6.998L77.5968 0.562999H79.3258L76.4268 9H74.8148L73.2288 4.242L71.6558 9H70.0438L67.2878 0.562999H69.0038ZM85.5295 0.393999C86.0928 0.393999 86.6085 0.489333 87.0765 0.679999C87.5445 0.862 87.9475 1.135 88.2855 1.499C88.9962 2.26167 89.3515 3.35367 89.3515 4.775C89.3515 6.205 88.9962 7.31 88.2855 8.09C87.6095 8.818 86.6865 9.182 85.5165 9.182C84.3552 9.182 83.4365 8.80933 82.7605 8.064C82.0498 7.29267 81.6945 6.19633 81.6945 4.775C81.6945 3.33633 82.0498 2.23567 82.7605 1.473C83.4278 0.753666 84.3508 0.393999 85.5295 0.393999ZM87.7655 4.801C87.7655 3.83033 87.5618 3.085 87.1545 2.565C86.7558 2.03633 86.2142 1.772 85.5295 1.772C84.8448 1.772 84.2988 2.03633 83.8915 2.565C83.4842 3.085 83.2805 3.83033 83.2805 4.801C83.2805 5.763 83.4842 6.504 83.8915 7.024C84.2988 7.53533 84.8448 7.791 85.5295 7.791C86.2142 7.791 86.7558 7.53533 87.1545 7.024C87.5618 6.504 87.7655 5.763 87.7655 4.801ZM98.9325 3.15C98.9325 3.748 98.7635 4.25933 98.4255 4.684C98.0875 5.10867 97.6022 5.40333 96.9695 5.568L99.2315 9H97.2295L95.3705 5.711H94.2005V9H92.6665V0.562999H95.7865C96.7832 0.562999 97.5589 0.801333 98.1135 1.278C98.6595 1.73733 98.9325 2.36133 98.9325 3.15ZM95.6435 4.684C96.2069 4.684 96.6315 4.55833 96.9175 4.307C97.2035 4.047 97.3465 3.709 97.3465 3.293C97.3465 2.86833 97.2165 2.53033 96.9565 2.279C96.6965 2.019 96.3065 1.889 95.7865 1.889H94.2005V4.684H95.6435ZM104.08 0.562999V4.034L107.408 0.562999H109.514L105.796 4.359L109.761 9H107.772L104.769 5.425L104.08 6.127V9H102.533V0.562999H104.08Z" fill="#837D88"/>
</svg>
