<svg width="1440" height="393" viewBox="0 0 1440 393" fill="none" xmlns="http://www.w3.org/2000/svg">
<rect width="1440" height="393" fill="#FAFAFA"/>
<mask id="mask0_0_259" style="mask-type:luminance" maskUnits="userSpaceOnUse" x="0" y="0" width="1440" height="393">
<rect width="1440" height="393" fill="white"/>
</mask>
<g mask="url(#mask0_0_259)">
<path fill-rule="evenodd" clip-rule="evenodd" d="M186.361 197.675C262.064 221.368 339.904 260.887 419.596 188.705C499.289 116.523 549.39 53.2913 517.036 -28.5221C484.682 -110.336 352.614 -59.3772 314.242 -132.499C275.869 -205.621 360.183 -271.984 323.833 -337.062C287.484 -402.14 259.534 -443.849 142.718 -402.471C25.9022 -361.092 36.6727 -255.807 -52.1601 -194.153C-140.993 -132.499 -237.104 -40.2003 -105.206 124.494C26.6915 289.188 110.659 173.981 186.361 197.675Z" stroke="#E4E4E4"/>
<path fill-rule="evenodd" clip-rule="evenodd" d="M176.895 159.751C238.478 178.991 301.8 211.081 366.629 152.468C431.457 93.8543 472.214 42.5093 445.895 -23.9248C419.575 -90.3588 312.14 -48.9796 280.924 -108.356C249.708 -167.732 318.296 -221.621 288.726 -274.465C259.157 -327.31 236.42 -361.178 141.392 -327.578C46.3638 -293.978 55.1254 -208.484 -17.1389 -158.42C-89.4031 -108.356 -167.588 -33.4076 -60.2912 100.327C47.0059 234.062 115.312 140.511 176.895 159.751Z" stroke="#E4E4E4"/>
<path fill-rule="evenodd" clip-rule="evenodd" d="M159.188 134.583C209.15 150.281 260.522 176.465 313.117 128.64C365.711 80.8147 398.777 38.9203 377.424 -15.2859C356.071 -69.492 268.91 -35.7291 243.586 -84.1764C218.261 -132.624 273.905 -176.594 249.916 -219.712C225.926 -262.829 207.48 -290.464 130.385 -263.048C53.2899 -235.633 60.398 -165.875 1.77097 -125.026C-56.8561 -84.1764 -120.287 -23.0233 -33.238 86.0961C53.8108 195.215 109.227 118.884 159.188 134.583Z" stroke="#E4E4E4"/>
<path fill-rule="evenodd" clip-rule="evenodd" d="M140.684 103.816C180.979 116.412 222.412 137.419 264.831 99.0481C307.25 60.6769 333.918 27.0639 316.696 -16.427C299.475 -59.918 229.178 -32.8292 208.753 -71.6997C188.328 -110.57 233.206 -145.848 213.858 -180.443C194.51 -215.038 179.633 -237.21 117.454 -215.213C55.2751 -193.217 61.008 -137.248 13.724 -104.474C-33.56 -71.6997 -84.7182 -22.635 -14.5115 64.9143C55.6952 152.464 100.389 91.221 140.684 103.816Z" stroke="#E4E4E4"/>
<path fill-rule="evenodd" clip-rule="evenodd" d="M135.917 83.9542C168.827 94.2494 202.666 111.421 237.31 80.0567C271.953 48.6924 293.734 21.2175 279.668 -14.3316C265.603 -49.8808 208.191 -27.7386 191.51 -59.511C174.828 -91.2835 211.481 -120.12 195.679 -148.397C179.877 -176.674 167.727 -194.797 116.945 -176.818C66.1627 -158.838 70.8448 -113.09 32.2274 -86.3006C-6.39001 -59.511 -48.1715 -19.406 9.16714 52.156C66.5058 123.718 103.008 73.6589 135.917 83.9542Z" stroke="#E4E4E4"/>
<path fill-rule="evenodd" clip-rule="evenodd" d="M126.775 69.594C153.493 77.9543 180.966 91.8987 209.093 66.4291C237.22 40.9595 254.903 18.6482 243.483 -10.2197C232.064 -39.0876 185.452 -21.1069 171.909 -46.9079C158.365 -72.7089 188.123 -96.1255 175.294 -119.088C162.465 -142.051 152.6 -156.768 111.371 -142.168C70.142 -127.567 73.9433 -90.4171 42.5906 -68.6625C11.2378 -46.9079 -22.6838 -14.3403 23.8684 43.7721C70.4205 101.884 100.056 61.2336 126.775 69.594Z" stroke="#E4E4E4"/>
</g>
<g clip-path="url(#clip0_0_259)">
<path d="M169.446 173.394C170.009 173.394 170.525 173.489 170.993 173.68C171.461 173.862 171.864 174.135 172.202 174.499C172.913 175.262 173.268 176.354 173.268 177.775C173.268 179.205 172.913 180.31 172.202 181.09C171.526 181.818 170.603 182.182 169.433 182.182C168.272 182.182 167.353 181.809 166.677 181.064C165.966 180.293 165.611 179.196 165.611 177.775C165.611 176.336 165.966 175.236 166.677 174.473C167.344 173.754 168.267 173.394 169.446 173.394ZM171.682 177.801C171.682 176.83 171.478 176.085 171.071 175.565C170.672 175.036 170.131 174.772 169.446 174.772C168.761 174.772 168.215 175.036 167.808 175.565C167.401 176.085 167.197 176.83 167.197 177.801C167.197 178.763 167.401 179.504 167.808 180.024C168.215 180.535 168.761 180.791 169.446 180.791C170.131 180.791 170.672 180.535 171.071 180.024C171.478 179.504 171.682 178.763 171.682 177.801ZM177.987 173.563V178.815C177.987 179.508 178.16 180.007 178.507 180.31C178.862 180.613 179.317 180.765 179.872 180.765C180.427 180.765 180.877 180.613 181.224 180.31C181.579 180.007 181.757 179.508 181.757 178.815V173.563H183.291V178.815C183.291 179.89 182.992 180.722 182.394 181.311C181.796 181.892 180.955 182.182 179.872 182.182C178.789 182.182 177.948 181.892 177.35 181.311C176.752 180.722 176.453 179.89 176.453 178.815V173.563H177.987ZM193.325 176.15C193.325 176.748 193.156 177.259 192.818 177.684C192.48 178.109 191.994 178.403 191.362 178.568L193.624 182H191.622L189.763 178.711H188.593V182H187.059V173.563H190.179C191.175 173.563 191.951 173.801 192.506 174.278C193.052 174.737 193.325 175.361 193.325 176.15ZM190.036 177.684C190.599 177.684 191.024 177.558 191.31 177.307C191.596 177.047 191.739 176.709 191.739 176.293C191.739 175.868 191.609 175.53 191.349 175.279C191.089 175.019 190.699 174.889 190.179 174.889H188.593V177.684H190.036ZM204.742 173.394C205.262 173.394 205.713 173.459 206.094 173.589C206.475 173.71 206.805 173.884 207.082 174.109C207.628 174.551 207.983 175.171 208.148 175.968L206.51 176.267C206.371 175.825 206.155 175.47 205.86 175.201C205.574 174.924 205.214 174.785 204.781 174.785C204.192 174.785 203.715 175.032 203.351 175.526C202.961 176.063 202.766 176.809 202.766 177.762C202.766 178.707 202.939 179.448 203.286 179.985C203.633 180.514 204.105 180.778 204.703 180.778C205.301 180.778 205.752 180.635 206.055 180.349C206.358 180.054 206.51 179.677 206.51 179.218H208.161C208.161 180.163 207.858 180.895 207.251 181.415C206.653 181.926 205.83 182.182 204.781 182.182C203.663 182.182 202.775 181.792 202.116 181.012C201.449 180.215 201.115 179.131 201.115 177.762C201.115 176.375 201.457 175.292 202.142 174.512C202.801 173.767 203.667 173.394 204.742 173.394ZM214.689 173.394C215.252 173.394 215.768 173.489 216.236 173.68C216.704 173.862 217.107 174.135 217.445 174.499C218.156 175.262 218.511 176.354 218.511 177.775C218.511 179.205 218.156 180.31 217.445 181.09C216.769 181.818 215.846 182.182 214.676 182.182C213.515 182.182 212.596 181.809 211.92 181.064C211.209 180.293 210.854 179.196 210.854 177.775C210.854 176.336 211.209 175.236 211.92 174.473C212.587 173.754 213.51 173.394 214.689 173.394ZM216.925 177.801C216.925 176.83 216.721 176.085 216.314 175.565C215.915 175.036 215.374 174.772 214.689 174.772C214.004 174.772 213.458 175.036 213.051 175.565C212.644 176.085 212.44 176.83 212.44 177.801C212.44 178.763 212.644 179.504 213.051 180.024C213.458 180.535 214.004 180.791 214.689 180.791C215.374 180.791 215.915 180.535 216.314 180.024C216.721 179.504 216.925 178.763 216.925 177.801ZM224.023 173.563L226.337 178.581L228.651 173.563H230.77V182H229.223V175.591L226.831 181.077H225.83L223.36 175.409V182H221.826V173.563H224.023ZM237.626 173.563C238.58 173.563 239.321 173.797 239.849 174.265C240.387 174.724 240.655 175.387 240.655 176.254C240.655 177.112 240.387 177.775 239.849 178.243C239.321 178.702 238.58 178.932 237.626 178.932H236.196V182H234.649V173.563H237.626ZM237.626 177.593C238.103 177.593 238.463 177.467 238.705 177.216C238.948 176.965 239.069 176.644 239.069 176.254C239.069 175.855 238.948 175.53 238.705 175.279C238.463 175.019 238.103 174.889 237.626 174.889H236.196V177.593H237.626ZM245.159 173.563H247.083L249.852 182H248.227L247.642 180.18H244.509L243.911 182H242.286L245.159 173.563ZM244.899 179.023H247.265L246.095 175.396L244.899 179.023ZM254.498 173.563L258.216 179.543V173.563H259.75V182H258.19L254.355 175.812V182H252.821V173.563H254.498ZM264.484 173.563L266.343 176.93L268.293 173.563H270.1L267.097 178.516V182H265.563V178.516L262.664 173.563H264.484Z" fill="#837D88"/>
<path d="M167.743 224.563V228.086H171.422V224.563H172.956V233H171.422V229.425H167.743V233H166.209V224.563H167.743ZM180.125 224.394C180.688 224.394 181.204 224.489 181.672 224.68C182.14 224.862 182.543 225.135 182.881 225.499C183.591 226.262 183.947 227.354 183.947 228.775C183.947 230.205 183.591 231.31 182.881 232.09C182.205 232.818 181.282 233.182 180.112 233.182C178.95 233.182 178.032 232.809 177.356 232.064C176.645 231.293 176.29 230.196 176.29 228.775C176.29 227.336 176.645 226.236 177.356 225.473C178.023 224.754 178.946 224.394 180.125 224.394ZM182.361 228.801C182.361 227.83 182.157 227.085 181.75 226.565C181.351 226.036 180.809 225.772 180.125 225.772C179.44 225.772 178.894 226.036 178.487 226.565C178.079 227.085 177.876 227.83 177.876 228.801C177.876 229.763 178.079 230.504 178.487 231.024C178.894 231.535 179.44 231.791 180.125 231.791C180.809 231.791 181.351 231.535 181.75 231.024C182.157 230.504 182.361 229.763 182.361 228.801ZM188.029 224.563L189.888 230.972L191.695 225.122H192.735L194.646 230.998L196.622 224.563H198.351L195.452 233H193.84L192.254 228.242L190.681 233H189.069L186.313 224.563H188.029ZM206.872 224.563L208.731 230.972L210.538 225.122H211.578L213.489 230.998L215.465 224.563H217.194L214.295 233H212.683L211.097 228.242L209.524 233H207.912L205.156 224.563H206.872ZM220.148 224.563H225.582V225.889H221.682V228.112H225.335V229.438H221.682V231.661H225.582V233H220.148V224.563ZM234.833 224.563L236.692 230.972L238.499 225.122H239.539L241.45 230.998L243.426 224.563H245.155L242.256 233H240.644L239.058 228.242L237.485 233H235.873L233.117 224.563H234.833ZM251.359 224.394C251.922 224.394 252.438 224.489 252.906 224.68C253.374 224.862 253.777 225.135 254.115 225.499C254.826 226.262 255.181 227.354 255.181 228.775C255.181 230.205 254.826 231.31 254.115 232.09C253.439 232.818 252.516 233.182 251.346 233.182C250.185 233.182 249.266 232.809 248.59 232.064C247.879 231.293 247.524 230.196 247.524 228.775C247.524 227.336 247.879 226.236 248.59 225.473C249.257 224.754 250.18 224.394 251.359 224.394ZM253.595 228.801C253.595 227.83 253.391 227.085 252.984 226.565C252.585 226.036 252.044 225.772 251.359 225.772C250.674 225.772 250.128 226.036 249.721 226.565C249.314 227.085 249.11 227.83 249.11 228.801C249.11 229.763 249.314 230.504 249.721 231.024C250.128 231.535 250.674 231.791 251.359 231.791C252.044 231.791 252.585 231.535 252.984 231.024C253.391 230.504 253.595 229.763 253.595 228.801ZM264.762 227.15C264.762 227.748 264.593 228.259 264.255 228.684C263.917 229.109 263.432 229.403 262.799 229.568L265.061 233H263.059L261.2 229.711H260.03V233H258.496V224.563H261.616C262.613 224.563 263.388 224.801 263.943 225.278C264.489 225.737 264.762 226.361 264.762 227.15ZM261.473 228.684C262.036 228.684 262.461 228.558 262.747 228.307C263.033 228.047 263.176 227.709 263.176 227.293C263.176 226.868 263.046 226.53 262.786 226.279C262.526 226.019 262.136 225.889 261.616 225.889H260.03V228.684H261.473ZM269.909 224.563V228.034L273.237 224.563H275.343L271.625 228.359L275.59 233H273.601L270.598 229.425L269.909 230.127V233H268.362V224.563H269.909Z" fill="#2D2641"/>
<path d="M166.976 255.563L168.835 261.972L170.642 256.122H171.682L173.593 261.998L175.569 255.563H177.298L174.399 264H172.787L171.201 259.242L169.628 264H168.016L165.26 255.563H166.976ZM181.799 255.563V259.086H185.478V255.563H187.012V264H185.478V260.425H181.799V264H180.265V255.563H181.799ZM191.762 255.563L193.621 258.93L195.571 255.563H197.378L194.375 260.516V264H192.841V260.516L189.942 255.563H191.762ZM205.077 255.563H206.611V264H205.077V255.563ZM212.176 255.563L215.894 261.543V255.563H217.428V264H215.868L212.033 257.812V264H210.499V255.563H212.176ZM225.777 257.89C225.638 257.153 225.118 256.785 224.217 256.785C223.775 256.785 223.428 256.876 223.177 257.058C222.934 257.231 222.813 257.444 222.813 257.695C222.813 257.946 222.891 258.146 223.047 258.293C223.211 258.432 223.463 258.562 223.801 258.683L225.634 259.398C226.258 259.641 226.739 259.948 227.077 260.321C227.415 260.685 227.584 261.144 227.584 261.699C227.584 262.462 227.298 263.068 226.726 263.519C226.154 263.961 225.339 264.182 224.282 264.182C223.346 264.182 222.587 263.952 222.007 263.493C221.357 262.99 221.014 262.28 220.98 261.361H222.501C222.501 262.054 222.86 262.492 223.58 262.674C223.796 262.735 224.082 262.765 224.438 262.765C224.793 262.765 225.122 262.678 225.426 262.505C225.729 262.323 225.881 262.085 225.881 261.79C225.881 261.487 225.798 261.257 225.634 261.101C225.469 260.936 225.2 260.785 224.828 260.646L223.151 259.983C222.501 259.732 222.002 259.437 221.656 259.099C221.309 258.761 221.136 258.293 221.136 257.695C221.136 256.993 221.409 256.438 221.955 256.031C222.509 255.606 223.259 255.394 224.204 255.394C225.157 255.394 225.889 255.615 226.401 256.057C226.921 256.49 227.22 257.101 227.298 257.89H225.777ZM232.538 255.563V260.815C232.538 261.508 232.711 262.007 233.058 262.31C233.413 262.613 233.868 262.765 234.423 262.765C234.977 262.765 235.428 262.613 235.775 262.31C236.13 262.007 236.308 261.508 236.308 260.815V255.563H237.842V260.815C237.842 261.89 237.543 262.722 236.945 263.311C236.347 263.892 235.506 264.182 234.423 264.182C233.339 264.182 232.499 263.892 231.901 263.311C231.303 262.722 231.004 261.89 231.004 260.815V255.563H232.538ZM247.875 258.15C247.875 258.748 247.706 259.259 247.368 259.684C247.03 260.109 246.545 260.403 245.912 260.568L248.174 264H246.172L244.313 260.711H243.143V264H241.609V255.563H244.729C245.726 255.563 246.502 255.801 247.056 256.278C247.602 256.737 247.875 257.361 247.875 258.15ZM244.586 259.684C245.15 259.684 245.574 259.558 245.86 259.307C246.146 259.047 246.289 258.709 246.289 258.293C246.289 257.868 246.159 257.53 245.899 257.279C245.639 257.019 245.249 256.889 244.729 256.889H243.143V259.684H244.586ZM251.463 255.563H256.897V256.889H252.997V259.112H256.65V260.438H252.997V262.661H256.897V264H251.463V255.563ZM265.689 257.747C265.689 258.206 265.576 258.592 265.351 258.904C265.125 259.207 264.77 259.48 264.285 259.723C263.877 259.931 263.609 260.109 263.479 260.256C263.357 260.403 263.279 260.542 263.245 260.672C263.21 260.793 263.193 260.936 263.193 261.101V261.478H261.659V260.958C261.659 260.178 261.893 259.623 262.361 259.294C262.525 259.173 262.768 259.03 263.089 258.865C263.409 258.7 263.639 258.536 263.778 258.371C263.925 258.198 263.999 257.981 263.999 257.721C263.999 257.452 263.89 257.231 263.674 257.058C263.457 256.876 263.136 256.785 262.712 256.785C262.287 256.785 261.953 256.889 261.711 257.097C261.468 257.296 261.329 257.561 261.295 257.89H259.696C259.739 257.136 260.016 256.534 260.528 256.083C261.039 255.624 261.754 255.394 262.673 255.394C263.6 255.394 264.332 255.619 264.87 256.07C265.416 256.521 265.689 257.08 265.689 257.747ZM261.399 263.155C261.399 262.86 261.494 262.618 261.685 262.427C261.884 262.236 262.14 262.141 262.452 262.141C262.772 262.141 263.037 262.236 263.245 262.427C263.453 262.618 263.557 262.86 263.557 263.155C263.557 263.45 263.453 263.697 263.245 263.896C263.037 264.087 262.772 264.182 262.452 264.182C262.14 264.182 261.884 264.087 261.685 263.896C261.494 263.697 261.399 263.45 261.399 263.155Z" fill="#2D2641"/>
<path d="M166.885 286.563L168.939 293.076L171.019 286.563H172.631L169.732 295H168.12L165.26 286.563H166.885ZM175.605 286.563H177.139V295H175.605V286.563ZM181.041 286.563H186.475V287.889H182.575V290.112H186.228V291.438H182.575V293.661H186.475V295H181.041V286.563ZM190.938 286.563L192.797 292.972L194.604 287.122H195.644L197.555 292.998L199.531 286.563H201.26L198.361 295H196.749L195.163 290.242L193.59 295H191.978L189.222 286.563H190.938ZM211.953 286.563C212.906 286.563 213.647 286.797 214.176 287.265C214.713 287.724 214.982 288.387 214.982 289.254C214.982 290.112 214.713 290.775 214.176 291.243C213.647 291.702 212.906 291.932 211.953 291.932H210.523V295H208.976V286.563H211.953ZM211.953 290.593C212.429 290.593 212.789 290.467 213.032 290.216C213.274 289.965 213.396 289.644 213.396 289.254C213.396 288.855 213.274 288.53 213.032 288.279C212.789 288.019 212.429 287.889 211.953 287.889H210.523V290.593H211.953ZM219.602 293.661H223.073V295H218.068V286.563H219.602V293.661ZM227.942 286.563H229.866L232.635 295H231.01L230.425 293.18H227.292L226.694 295H225.069L227.942 286.563ZM227.682 292.023H230.048L228.878 288.396L227.682 292.023ZM237.281 286.563L240.999 292.543V286.563H242.533V295H240.973L237.138 288.812V295H235.604V286.563H237.281ZM250.881 288.89C250.743 288.153 250.223 287.785 249.321 287.785C248.879 287.785 248.533 287.876 248.281 288.058C248.039 288.231 247.917 288.444 247.917 288.695C247.917 288.946 247.995 289.146 248.151 289.293C248.316 289.432 248.567 289.562 248.905 289.683L250.738 290.398C251.362 290.641 251.843 290.948 252.181 291.321C252.519 291.685 252.688 292.144 252.688 292.699C252.688 293.462 252.402 294.068 251.83 294.519C251.258 294.961 250.444 295.182 249.386 295.182C248.45 295.182 247.692 294.952 247.111 294.493C246.461 293.99 246.119 293.28 246.084 292.361H247.605C247.605 293.054 247.965 293.492 248.684 293.674C248.901 293.735 249.187 293.765 249.542 293.765C249.898 293.765 250.227 293.678 250.53 293.505C250.834 293.323 250.985 293.085 250.985 292.79C250.985 292.487 250.903 292.257 250.738 292.101C250.574 291.936 250.305 291.785 249.932 291.646L248.255 290.983C247.605 290.732 247.107 290.437 246.76 290.099C246.414 289.761 246.24 289.293 246.24 288.695C246.24 287.993 246.513 287.438 247.059 287.031C247.614 286.606 248.364 286.394 249.308 286.394C250.262 286.394 250.994 286.615 251.505 287.057C252.025 287.49 252.324 288.101 252.402 288.89H250.881Z" fill="#2D2641"/>
<path d="M172.475 320.15C172.475 320.748 172.306 321.259 171.968 321.684C171.63 322.109 171.145 322.403 170.512 322.568L172.774 326H170.772L168.913 322.711H167.743V326H166.209V317.563H169.329C170.326 317.563 171.101 317.801 171.656 318.278C172.202 318.737 172.475 319.361 172.475 320.15ZM169.186 321.684C169.749 321.684 170.174 321.558 170.46 321.307C170.746 321.047 170.889 320.709 170.889 320.293C170.889 319.868 170.759 319.53 170.499 319.279C170.239 319.019 169.849 318.889 169.329 318.889H167.743V321.684H169.186ZM176.062 317.563H181.496V318.889H177.596V321.112H181.249V322.438H177.596V324.661H181.496V326H176.062V317.563ZM185.868 317.563L187.922 324.076L190.002 317.563H191.614L188.715 326H187.103L184.243 317.563H185.868ZM194.589 317.563H196.123V326H194.589V317.563ZM200.024 317.563H205.458V318.889H201.558V321.112H205.211V322.438H201.558V324.661H205.458V326H200.024V317.563ZM209.921 317.563L211.78 323.972L213.587 318.122H214.627L216.538 323.998L218.514 317.563H220.243L217.344 326H215.732L214.146 321.242L212.573 326H210.961L208.205 317.563H209.921ZM227.643 319.89C227.504 319.153 226.984 318.785 226.083 318.785C225.641 318.785 225.294 318.876 225.043 319.058C224.8 319.231 224.679 319.444 224.679 319.695C224.679 319.946 224.757 320.146 224.913 320.293C225.078 320.432 225.329 320.562 225.667 320.683L227.5 321.398C228.124 321.641 228.605 321.948 228.943 322.321C229.281 322.685 229.45 323.144 229.45 323.699C229.45 324.462 229.164 325.068 228.592 325.519C228.02 325.961 227.205 326.182 226.148 326.182C225.212 326.182 224.454 325.952 223.873 325.493C223.223 324.99 222.881 324.28 222.846 323.361H224.367C224.367 324.054 224.727 324.492 225.446 324.674C225.663 324.735 225.949 324.765 226.304 324.765C226.659 324.765 226.989 324.678 227.292 324.505C227.595 324.323 227.747 324.085 227.747 323.79C227.747 323.487 227.665 323.257 227.5 323.101C227.335 322.936 227.067 322.785 226.694 322.646L225.017 321.983C224.367 321.732 223.869 321.437 223.522 321.099C223.175 320.761 223.002 320.293 223.002 319.695C223.002 318.993 223.275 318.438 223.821 318.031C224.376 317.606 225.125 317.394 226.07 317.394C227.023 317.394 227.756 317.615 228.267 318.057C228.787 318.49 229.086 319.101 229.164 319.89H227.643Z" fill="#2D2641"/>
</g>
<g clip-path="url(#clip1_0_259)">
<path d="M452.743 173.563V177.086H456.422V173.563H457.956V182H456.422V178.425H452.743V182H451.209V173.563H452.743ZM461.875 173.563H467.309V174.889H463.409V177.112H467.062V178.438H463.409V180.661H467.309V182H461.875V173.563ZM472.539 180.661H476.01V182H471.005V173.563H472.539V180.661ZM481.867 173.563C482.82 173.563 483.561 173.797 484.09 174.265C484.627 174.724 484.896 175.387 484.896 176.254C484.896 177.112 484.627 177.775 484.09 178.243C483.561 178.702 482.82 178.932 481.867 178.932H480.437V182H478.89V173.563H481.867ZM481.867 177.593C482.343 177.593 482.703 177.467 482.946 177.216C483.188 176.965 483.31 176.644 483.31 176.254C483.31 175.855 483.188 175.53 482.946 175.279C482.703 175.019 482.343 174.889 481.867 174.889H480.437V177.593H481.867ZM494.968 173.563L497.282 178.581L499.596 173.563H501.715V182H500.168V175.591L497.776 181.077H496.775L494.305 175.409V182H492.771V173.563H494.968ZM505.62 173.563H511.054V174.889H507.154V177.112H510.807V178.438H507.154V180.661H511.054V182H505.62V173.563Z" fill="#837D88"/>
<path d="M451.209 224.563H456.526V225.889H452.743V228.112H456.201V229.425H452.743V233H451.209V224.563ZM460.918 224.563H462.842L465.611 233H463.986L463.401 231.18H460.268L459.67 233H458.045L460.918 224.563ZM460.658 230.023H463.024L461.854 226.396L460.658 230.023ZM475.56 235.106C475.205 235.262 474.819 235.34 474.403 235.34C473.563 235.34 472.852 234.902 472.271 234.027L471.712 233.182C470.594 233.165 469.702 232.783 469.034 232.038C468.35 231.249 468.007 230.162 468.007 228.775C468.007 227.336 468.363 226.236 469.073 225.473C469.741 224.754 470.659 224.394 471.829 224.394C472.991 224.394 473.914 224.762 474.598 225.499C475.309 226.262 475.664 227.354 475.664 228.775C475.664 229.945 475.439 230.881 474.988 231.583C474.538 232.276 473.931 232.744 473.168 232.987L473.376 233.312C473.584 233.633 473.892 233.802 474.299 233.819C474.672 233.819 475.092 233.719 475.56 233.52V235.106ZM474.078 228.801C474.078 227.83 473.875 227.085 473.467 226.565C473.069 226.036 472.527 225.772 471.842 225.772C471.158 225.772 470.612 226.036 470.204 226.565C469.797 227.085 469.593 227.83 469.593 228.801C469.593 229.763 469.797 230.504 470.204 231.024C470.612 231.535 471.158 231.791 471.842 231.791C472.527 231.791 473.069 231.535 473.467 231.024C473.875 230.504 474.078 229.763 474.078 228.801Z" fill="#2D2641"/>
<path d="M450.078 255.563H456.838V256.889H454.225V264H452.691V256.889H450.078V255.563ZM459.615 255.563H465.049V256.889H461.149V259.112H464.802V260.438H461.149V262.661H465.049V264H459.615V255.563ZM475.011 258.15C475.011 258.748 474.842 259.259 474.504 259.684C474.166 260.109 473.681 260.403 473.048 260.568L475.31 264H473.308L471.449 260.711H470.279V264H468.745V255.563H471.865C472.862 255.563 473.637 255.801 474.192 256.278C474.738 256.737 475.011 257.361 475.011 258.15ZM471.722 259.684C472.285 259.684 472.71 259.558 472.996 259.307C473.282 259.047 473.425 258.709 473.425 258.293C473.425 257.868 473.295 257.53 473.035 257.279C472.775 257.019 472.385 256.889 471.865 256.889H470.279V259.684H471.722ZM480.808 255.563L483.122 260.581L485.436 255.563H487.555V264H486.008V257.591L483.616 263.077H482.615L480.145 257.409V264H478.611V255.563H480.808ZM495.907 257.89C495.768 257.153 495.248 256.785 494.347 256.785C493.905 256.785 493.558 256.876 493.307 257.058C493.064 257.231 492.943 257.444 492.943 257.695C492.943 257.946 493.021 258.146 493.177 258.293C493.341 258.432 493.593 258.562 493.931 258.683L495.764 259.398C496.388 259.641 496.869 259.948 497.207 260.321C497.545 260.685 497.714 261.144 497.714 261.699C497.714 262.462 497.428 263.068 496.856 263.519C496.284 263.961 495.469 264.182 494.412 264.182C493.476 264.182 492.717 263.952 492.137 263.493C491.487 262.99 491.144 262.28 491.11 261.361H492.631C492.631 262.054 492.99 262.492 493.71 262.674C493.926 262.735 494.212 262.765 494.568 262.765C494.923 262.765 495.252 262.678 495.556 262.505C495.859 262.323 496.011 262.085 496.011 261.79C496.011 261.487 495.928 261.257 495.764 261.101C495.599 260.936 495.33 260.785 494.958 260.646L493.281 259.983C492.631 259.732 492.132 259.437 491.786 259.099C491.439 258.761 491.266 258.293 491.266 257.695C491.266 256.993 491.539 256.438 492.085 256.031C492.639 255.606 493.389 255.394 494.334 255.394C495.287 255.394 496.019 255.615 496.531 256.057C497.051 256.49 497.35 257.101 497.428 257.89H495.907ZM509.289 255.394C509.852 255.394 510.368 255.489 510.836 255.68C511.304 255.862 511.707 256.135 512.045 256.499C512.755 257.262 513.111 258.354 513.111 259.775C513.111 261.205 512.755 262.31 512.045 263.09C511.369 263.818 510.446 264.182 509.276 264.182C508.114 264.182 507.196 263.809 506.52 263.064C505.809 262.293 505.454 261.196 505.454 259.775C505.454 258.336 505.809 257.236 506.52 256.473C507.187 255.754 508.11 255.394 509.289 255.394ZM511.525 259.801C511.525 258.83 511.321 258.085 510.914 257.565C510.515 257.036 509.973 256.772 509.289 256.772C508.604 256.772 508.058 257.036 507.651 257.565C507.243 258.085 507.04 258.83 507.04 259.801C507.04 260.763 507.243 261.504 507.651 262.024C508.058 262.535 508.604 262.791 509.289 262.791C509.973 262.791 510.515 262.535 510.914 262.024C511.321 261.504 511.525 260.763 511.525 259.801ZM516.426 255.563H521.743V256.889H517.96V259.112H521.418V260.425H517.96V264H516.426V255.563ZM531.227 255.563V260.815C531.227 261.508 531.401 262.007 531.747 262.31C532.103 262.613 532.558 262.765 533.112 262.765C533.667 262.765 534.118 262.613 534.464 262.31C534.82 262.007 534.997 261.508 534.997 260.815V255.563H536.531V260.815C536.531 261.89 536.232 262.722 535.634 263.311C535.036 263.892 534.196 264.182 533.112 264.182C532.029 264.182 531.188 263.892 530.59 263.311C529.992 262.722 529.693 261.89 529.693 260.815V255.563H531.227ZM544.732 257.89C544.593 257.153 544.073 256.785 543.172 256.785C542.73 256.785 542.383 256.876 542.132 257.058C541.889 257.231 541.768 257.444 541.768 257.695C541.768 257.946 541.846 258.146 542.002 258.293C542.167 258.432 542.418 258.562 542.756 258.683L544.589 259.398C545.213 259.641 545.694 259.948 546.032 260.321C546.37 260.685 546.539 261.144 546.539 261.699C546.539 262.462 546.253 263.068 545.681 263.519C545.109 263.961 544.294 264.182 543.237 264.182C542.301 264.182 541.543 263.952 540.962 263.493C540.312 262.99 539.97 262.28 539.935 261.361H541.456C541.456 262.054 541.816 262.492 542.535 262.674C542.752 262.735 543.038 262.765 543.393 262.765C543.748 262.765 544.078 262.678 544.381 262.505C544.684 262.323 544.836 262.085 544.836 261.79C544.836 261.487 544.754 261.257 544.589 261.101C544.424 260.936 544.156 260.785 543.783 260.646L542.106 259.983C541.456 259.732 540.958 259.437 540.611 259.099C540.264 258.761 540.091 258.293 540.091 257.695C540.091 256.993 540.364 256.438 540.91 256.031C541.465 255.606 542.214 255.394 543.159 255.394C544.112 255.394 544.845 255.615 545.356 256.057C545.876 256.49 546.175 257.101 546.253 257.89H544.732ZM550.076 255.563H555.51V256.889H551.61V259.112H555.263V260.438H551.61V262.661H555.51V264H550.076V255.563Z" fill="#2D2641"/>
<path d="M450 265.3H556.498V265.95H450V265.3Z" fill="#2D2641"/>
<path d="M454.147 286.563C455.1 286.563 455.841 286.797 456.37 287.265C456.907 287.724 457.176 288.387 457.176 289.254C457.176 290.112 456.907 290.775 456.37 291.243C455.841 291.702 455.1 291.932 454.147 291.932H452.717V295H451.17V286.563H454.147ZM454.147 290.593C454.624 290.593 454.983 290.467 455.226 290.216C455.469 289.965 455.59 289.644 455.59 289.254C455.59 288.855 455.469 288.53 455.226 288.279C454.983 288.019 454.624 287.889 454.147 287.889H452.717V290.593H454.147ZM466.529 289.15C466.529 289.748 466.36 290.259 466.022 290.684C465.684 291.109 465.198 291.403 464.566 291.568L466.828 295H464.826L462.967 291.711H461.797V295H460.263V286.563H463.383C464.379 286.563 465.155 286.801 465.71 287.278C466.256 287.737 466.529 288.361 466.529 289.15ZM463.24 290.684C463.803 290.684 464.228 290.558 464.514 290.307C464.8 290.047 464.943 289.709 464.943 289.293C464.943 288.868 464.813 288.53 464.553 288.279C464.293 288.019 463.903 287.889 463.383 287.889H461.797V290.684H463.24ZM470.129 286.563H471.663V295H470.129V286.563ZM476.253 286.563L478.307 293.076L480.387 286.563H481.999L479.1 295H477.488L474.628 286.563H476.253ZM486.39 286.563H488.314L491.083 295H489.458L488.873 293.18H485.74L485.142 295H483.517L486.39 286.563ZM486.13 292.023H488.496L487.326 288.396L486.13 292.023ZM497.107 286.394C497.627 286.394 498.078 286.459 498.459 286.589C498.84 286.71 499.17 286.884 499.447 287.109C499.993 287.551 500.348 288.171 500.513 288.968L498.875 289.267C498.736 288.825 498.52 288.47 498.225 288.201C497.939 287.924 497.579 287.785 497.146 287.785C496.557 287.785 496.08 288.032 495.716 288.526C495.326 289.063 495.131 289.809 495.131 290.762C495.131 291.707 495.304 292.448 495.651 292.985C495.998 293.514 496.47 293.778 497.068 293.778C497.666 293.778 498.117 293.635 498.42 293.349C498.723 293.054 498.875 292.677 498.875 292.218H500.526C500.526 293.163 500.223 293.895 499.616 294.415C499.018 294.926 498.195 295.182 497.146 295.182C496.028 295.182 495.14 294.792 494.481 294.012C493.814 293.215 493.48 292.131 493.48 290.762C493.48 289.375 493.822 288.292 494.507 287.512C495.166 286.767 496.032 286.394 497.107 286.394ZM504.636 286.563L506.495 289.93L508.445 286.563H510.252L507.249 291.516V295H505.715V291.516L502.816 286.563H504.636ZM520.889 286.563C521.843 286.563 522.584 286.797 523.112 287.265C523.65 287.724 523.918 288.387 523.918 289.254C523.918 290.112 523.65 290.775 523.112 291.243C522.584 291.702 521.843 291.932 520.889 291.932H519.459V295H517.912V286.563H520.889ZM520.889 290.593C521.366 290.593 521.726 290.467 521.968 290.216C522.211 289.965 522.332 289.644 522.332 289.254C522.332 288.855 522.211 288.53 521.968 288.279C521.726 288.019 521.366 287.889 520.889 287.889H519.459V290.593H520.889ZM530.242 286.394C530.805 286.394 531.321 286.489 531.789 286.68C532.257 286.862 532.66 287.135 532.998 287.499C533.709 288.262 534.064 289.354 534.064 290.775C534.064 292.205 533.709 293.31 532.998 294.09C532.322 294.818 531.399 295.182 530.229 295.182C529.068 295.182 528.149 294.809 527.473 294.064C526.762 293.293 526.407 292.196 526.407 290.775C526.407 289.336 526.762 288.236 527.473 287.473C528.14 286.754 529.063 286.394 530.242 286.394ZM532.478 290.801C532.478 289.83 532.274 289.085 531.867 288.565C531.468 288.036 530.927 287.772 530.242 287.772C529.557 287.772 529.011 288.036 528.604 288.565C528.197 289.085 527.993 289.83 527.993 290.801C527.993 291.763 528.197 292.504 528.604 293.024C529.011 293.535 529.557 293.791 530.242 293.791C530.927 293.791 531.468 293.535 531.867 293.024C532.274 292.504 532.478 291.763 532.478 290.801ZM538.913 293.661H542.384V295H537.379V286.563H538.913V293.661ZM545.303 286.563H546.837V295H545.303V286.563ZM553.78 286.394C554.3 286.394 554.751 286.459 555.132 286.589C555.513 286.71 555.843 286.884 556.12 287.109C556.666 287.551 557.021 288.171 557.186 288.968L555.548 289.267C555.409 288.825 555.193 288.47 554.898 288.201C554.612 287.924 554.252 287.785 553.819 287.785C553.23 287.785 552.753 288.032 552.389 288.526C551.999 289.063 551.804 289.809 551.804 290.762C551.804 291.707 551.977 292.448 552.324 292.985C552.671 293.514 553.143 293.778 553.741 293.778C554.339 293.778 554.79 293.635 555.093 293.349C555.396 293.054 555.548 292.677 555.548 292.218H557.199C557.199 293.163 556.896 293.895 556.289 294.415C555.691 294.926 554.868 295.182 553.819 295.182C552.701 295.182 551.813 294.792 551.154 294.012C550.487 293.215 550.153 292.131 550.153 290.762C550.153 289.375 550.495 288.292 551.18 287.512C551.839 286.767 552.705 286.394 553.78 286.394ZM561.309 286.563L563.168 289.93L565.118 286.563H566.925L563.922 291.516V295H562.388V291.516L559.489 286.563H561.309Z" fill="#2D2641"/>
<path d="M454.238 317.394C454.758 317.394 455.209 317.459 455.59 317.589C455.971 317.71 456.301 317.884 456.578 318.109C457.124 318.551 457.479 319.171 457.644 319.968L456.006 320.267C455.867 319.825 455.651 319.47 455.356 319.201C455.07 318.924 454.71 318.785 454.277 318.785C453.688 318.785 453.211 319.032 452.847 319.526C452.457 320.063 452.262 320.809 452.262 321.762C452.262 322.707 452.435 323.448 452.782 323.985C453.129 324.514 453.601 324.778 454.199 324.778C454.797 324.778 455.248 324.635 455.551 324.349C455.854 324.054 456.006 323.677 456.006 323.218H457.657C457.657 324.163 457.354 324.895 456.747 325.415C456.149 325.926 455.326 326.182 454.277 326.182C453.159 326.182 452.271 325.792 451.612 325.012C450.945 324.215 450.611 323.131 450.611 321.762C450.611 320.375 450.953 319.292 451.638 318.512C452.297 317.767 453.163 317.394 454.238 317.394ZM464.185 317.394C464.749 317.394 465.264 317.489 465.732 317.68C466.2 317.862 466.603 318.135 466.941 318.499C467.652 319.262 468.007 320.354 468.007 321.775C468.007 323.205 467.652 324.31 466.941 325.09C466.265 325.818 465.342 326.182 464.172 326.182C463.011 326.182 462.092 325.809 461.416 325.064C460.706 324.293 460.35 323.196 460.35 321.775C460.35 320.336 460.706 319.236 461.416 318.473C462.084 317.754 463.007 317.394 464.185 317.394ZM466.421 321.801C466.421 320.83 466.218 320.085 465.81 319.565C465.412 319.036 464.87 318.772 464.185 318.772C463.501 318.772 462.955 319.036 462.547 319.565C462.14 320.085 461.936 320.83 461.936 321.801C461.936 322.763 462.14 323.504 462.547 324.024C462.955 324.535 463.501 324.791 464.185 324.791C464.87 324.791 465.412 324.535 465.81 324.024C466.218 323.504 466.421 322.763 466.421 321.801ZM474.559 317.394C475.123 317.394 475.638 317.489 476.106 317.68C476.574 317.862 476.977 318.135 477.315 318.499C478.026 319.262 478.381 320.354 478.381 321.775C478.381 323.205 478.026 324.31 477.315 325.09C476.639 325.818 475.716 326.182 474.546 326.182C473.385 326.182 472.466 325.809 471.79 325.064C471.08 324.293 470.724 323.196 470.724 321.775C470.724 320.336 471.08 319.236 471.79 318.473C472.458 317.754 473.381 317.394 474.559 317.394ZM476.795 321.801C476.795 320.83 476.592 320.085 476.184 319.565C475.786 319.036 475.244 318.772 474.559 318.772C473.875 318.772 473.329 319.036 472.921 319.565C472.514 320.085 472.31 320.83 472.31 321.801C472.31 322.763 472.514 323.504 472.921 324.024C473.329 324.535 473.875 324.791 474.559 324.791C475.244 324.791 475.786 324.535 476.184 324.024C476.592 323.504 476.795 322.763 476.795 321.801ZM483.243 317.563V321.034L486.571 317.563H488.677L484.959 321.359L488.924 326H486.935L483.932 322.425L483.243 323.127V326H481.696V317.563H483.243ZM491.702 317.563H493.236V326H491.702V317.563ZM497.137 317.563H502.571V318.889H498.671V321.112H502.324V322.438H498.671V324.661H502.571V326H497.137V317.563ZM510.701 319.89C510.562 319.153 510.042 318.785 509.141 318.785C508.699 318.785 508.352 318.876 508.101 319.058C507.858 319.231 507.737 319.444 507.737 319.695C507.737 319.946 507.815 320.146 507.971 320.293C508.135 320.432 508.387 320.562 508.725 320.683L510.558 321.398C511.182 321.641 511.663 321.948 512.001 322.321C512.339 322.685 512.508 323.144 512.508 323.699C512.508 324.462 512.222 325.068 511.65 325.519C511.078 325.961 510.263 326.182 509.206 326.182C508.27 326.182 507.511 325.952 506.931 325.493C506.281 324.99 505.938 324.28 505.904 323.361H507.425C507.425 324.054 507.784 324.492 508.504 324.674C508.72 324.735 509.006 324.765 509.362 324.765C509.717 324.765 510.046 324.678 510.35 324.505C510.653 324.323 510.805 324.085 510.805 323.79C510.805 323.487 510.722 323.257 510.558 323.101C510.393 322.936 510.124 322.785 509.752 322.646L508.075 321.983C507.425 321.732 506.926 321.437 506.58 321.099C506.233 320.761 506.06 320.293 506.06 319.695C506.06 318.993 506.333 318.438 506.879 318.031C507.433 317.606 508.183 317.394 509.128 317.394C510.081 317.394 510.813 317.615 511.325 318.057C511.845 318.49 512.144 319.101 512.222 319.89H510.701Z" fill="#2D2641"/>
</g>
<g clip-path="url(#clip2_0_259)">
<path d="M739.238 173.394C739.758 173.394 740.209 173.459 740.59 173.589C740.971 173.71 741.301 173.884 741.578 174.109C742.124 174.551 742.479 175.171 742.644 175.968L741.006 176.267C740.867 175.825 740.651 175.47 740.356 175.201C740.07 174.924 739.71 174.785 739.277 174.785C738.688 174.785 738.211 175.032 737.847 175.526C737.457 176.063 737.262 176.809 737.262 177.762C737.262 178.707 737.435 179.448 737.782 179.985C738.129 180.514 738.601 180.778 739.199 180.778C739.797 180.778 740.248 180.635 740.551 180.349C740.854 180.054 741.006 179.677 741.006 179.218H742.657C742.657 180.163 742.354 180.895 741.747 181.415C741.149 181.926 740.326 182.182 739.277 182.182C738.159 182.182 737.271 181.792 736.612 181.012C735.945 180.215 735.611 179.131 735.611 177.762C735.611 176.375 735.953 175.292 736.638 174.512C737.297 173.767 738.163 173.394 739.238 173.394ZM749.185 173.394C749.749 173.394 750.264 173.489 750.732 173.68C751.2 173.862 751.603 174.135 751.941 174.499C752.652 175.262 753.007 176.354 753.007 177.775C753.007 179.205 752.652 180.31 751.941 181.09C751.265 181.818 750.342 182.182 749.172 182.182C748.011 182.182 747.092 181.809 746.416 181.064C745.706 180.293 745.35 179.196 745.35 177.775C745.35 176.336 745.706 175.236 746.416 174.473C747.084 173.754 748.007 173.394 749.185 173.394ZM751.421 177.801C751.421 176.83 751.218 176.085 750.81 175.565C750.412 175.036 749.87 174.772 749.185 174.772C748.501 174.772 747.955 175.036 747.547 175.565C747.14 176.085 746.936 176.83 746.936 177.801C746.936 178.763 747.14 179.504 747.547 180.024C747.955 180.535 748.501 180.791 749.185 180.791C749.87 180.791 750.412 180.535 750.81 180.024C751.218 179.504 751.421 178.763 751.421 177.801ZM757.973 173.563L761.691 179.543V173.563H763.225V182H761.665L757.83 175.812V182H756.296V173.563H757.973ZM766.01 173.563H772.77V174.889H770.157V182H768.623V174.889H766.01V173.563ZM776.926 173.563H778.85L781.619 182H779.994L779.409 180.18H776.276L775.678 182H774.053L776.926 173.563ZM776.666 179.023H779.032L777.862 175.396L776.666 179.023ZM787.642 173.394C788.162 173.394 788.613 173.459 788.994 173.589C789.376 173.71 789.705 173.884 789.982 174.109C790.528 174.551 790.884 175.171 791.048 175.968L789.41 176.267C789.272 175.825 789.055 175.47 788.76 175.201C788.474 174.924 788.115 174.785 787.681 174.785C787.092 174.785 786.615 175.032 786.251 175.526C785.861 176.063 785.666 176.809 785.666 177.762C785.666 178.707 785.84 179.448 786.186 179.985C786.533 180.514 787.005 180.778 787.603 180.778C788.201 180.778 788.652 180.635 788.955 180.349C789.259 180.054 789.41 179.677 789.41 179.218H791.061C791.061 180.163 790.758 180.895 790.151 181.415C789.553 181.926 788.73 182.182 787.681 182.182C786.563 182.182 785.675 181.792 785.016 181.012C784.349 180.215 784.015 179.131 784.015 177.762C784.015 176.375 784.358 175.292 785.042 174.512C785.701 173.767 786.568 173.394 787.642 173.394ZM793.222 173.563H799.982V174.889H797.369V182H795.835V174.889H793.222V173.563Z" fill="#837D88"/>
<path d="M740.642 226.89C740.503 226.153 739.983 225.785 739.082 225.785C738.64 225.785 738.293 225.876 738.042 226.058C737.799 226.231 737.678 226.444 737.678 226.695C737.678 226.946 737.756 227.146 737.912 227.293C738.077 227.432 738.328 227.562 738.666 227.683L740.499 228.398C741.123 228.641 741.604 228.948 741.942 229.321C742.28 229.685 742.449 230.144 742.449 230.699C742.449 231.462 742.163 232.068 741.591 232.519C741.019 232.961 740.204 233.182 739.147 233.182C738.211 233.182 737.453 232.952 736.872 232.493C736.222 231.99 735.88 231.28 735.845 230.361H737.366C737.366 231.054 737.726 231.492 738.445 231.674C738.662 231.735 738.948 231.765 739.303 231.765C739.658 231.765 739.988 231.678 740.291 231.505C740.594 231.323 740.746 231.085 740.746 230.79C740.746 230.487 740.664 230.257 740.499 230.101C740.334 229.936 740.066 229.785 739.693 229.646L738.016 228.983C737.366 228.732 736.868 228.437 736.521 228.099C736.174 227.761 736.001 227.293 736.001 226.695C736.001 225.993 736.274 225.438 736.82 225.031C737.375 224.606 738.124 224.394 739.069 224.394C740.022 224.394 740.755 224.615 741.266 225.057C741.786 225.49 742.085 226.101 742.163 226.89H740.642ZM747.949 224.563H749.873L752.642 233H751.017L750.432 231.18H747.299L746.701 233H745.076L747.949 224.563ZM747.689 230.023H750.055L748.885 226.396L747.689 230.023ZM757.171 231.661H760.642V233H755.637V224.563H757.171V231.661ZM763.548 224.563H768.982V225.889H765.082V228.112H768.735V229.438H765.082V231.661H768.982V233H763.548V224.563ZM777.111 226.89C776.972 226.153 776.452 225.785 775.551 225.785C775.109 225.785 774.762 225.876 774.511 226.058C774.268 226.231 774.147 226.444 774.147 226.695C774.147 226.946 774.225 227.146 774.381 227.293C774.545 227.432 774.797 227.562 775.135 227.683L776.968 228.398C777.592 228.641 778.073 228.948 778.411 229.321C778.749 229.685 778.918 230.144 778.918 230.699C778.918 231.462 778.632 232.068 778.06 232.519C777.488 232.961 776.673 233.182 775.616 233.182C774.68 233.182 773.921 232.952 773.341 232.493C772.691 231.99 772.348 231.28 772.314 230.361H773.835C773.835 231.054 774.194 231.492 774.914 231.674C775.13 231.735 775.416 231.765 775.772 231.765C776.127 231.765 776.456 231.678 776.76 231.505C777.063 231.323 777.215 231.085 777.215 230.79C777.215 230.487 777.132 230.257 776.968 230.101C776.803 229.936 776.534 229.785 776.162 229.646L774.485 228.983C773.835 228.732 773.336 228.437 772.99 228.099C772.643 227.761 772.47 227.293 772.47 226.695C772.47 225.993 772.743 225.438 773.289 225.031C773.843 224.606 774.593 224.394 775.538 224.394C776.491 224.394 777.223 224.615 777.735 225.057C778.255 225.49 778.554 226.101 778.632 226.89H777.111Z" fill="#2D2641"/>
<path d="M740.642 257.89C740.503 257.153 739.983 256.785 739.082 256.785C738.64 256.785 738.293 256.876 738.042 257.058C737.799 257.231 737.678 257.444 737.678 257.695C737.678 257.946 737.756 258.146 737.912 258.293C738.077 258.432 738.328 258.562 738.666 258.683L740.499 259.398C741.123 259.641 741.604 259.948 741.942 260.321C742.28 260.685 742.449 261.144 742.449 261.699C742.449 262.462 742.163 263.068 741.591 263.519C741.019 263.961 740.204 264.182 739.147 264.182C738.211 264.182 737.453 263.952 736.872 263.493C736.222 262.99 735.88 262.28 735.845 261.361H737.366C737.366 262.054 737.726 262.492 738.445 262.674C738.662 262.735 738.948 262.765 739.303 262.765C739.658 262.765 739.988 262.678 740.291 262.505C740.594 262.323 740.746 262.085 740.746 261.79C740.746 261.487 740.664 261.257 740.499 261.101C740.334 260.936 740.066 260.785 739.693 260.646L738.016 259.983C737.366 259.732 736.868 259.437 736.521 259.099C736.174 258.761 736.001 258.293 736.001 257.695C736.001 256.993 736.274 256.438 736.82 256.031C737.375 255.606 738.124 255.394 739.069 255.394C740.022 255.394 740.755 255.615 741.266 256.057C741.786 256.49 742.085 257.101 742.163 257.89H740.642ZM747.403 255.563V260.815C747.403 261.508 747.576 262.007 747.923 262.31C748.278 262.613 748.733 262.765 749.288 262.765C749.843 262.765 750.293 262.613 750.64 262.31C750.995 262.007 751.173 261.508 751.173 260.815V255.563H752.707V260.815C752.707 261.89 752.408 262.722 751.81 263.311C751.212 263.892 750.371 264.182 749.288 264.182C748.205 264.182 747.364 263.892 746.766 263.311C746.168 262.722 745.869 261.89 745.869 260.815V255.563H747.403ZM759.413 255.563C760.366 255.563 761.107 255.797 761.636 256.265C762.173 256.724 762.442 257.387 762.442 258.254C762.442 259.112 762.173 259.775 761.636 260.243C761.107 260.702 760.366 260.932 759.413 260.932H757.983V264H756.436V255.563H759.413ZM759.413 259.593C759.889 259.593 760.249 259.467 760.492 259.216C760.734 258.965 760.856 258.644 760.856 258.254C760.856 257.855 760.734 257.53 760.492 257.279C760.249 257.019 759.889 256.889 759.413 256.889H757.983V259.593H759.413ZM768.466 255.563C769.42 255.563 770.161 255.797 770.689 256.265C771.227 256.724 771.495 257.387 771.495 258.254C771.495 259.112 771.227 259.775 770.689 260.243C770.161 260.702 769.42 260.932 768.466 260.932H767.036V264H765.489V255.563H768.466ZM768.466 259.593C768.943 259.593 769.303 259.467 769.545 259.216C769.788 258.965 769.909 258.644 769.909 258.254C769.909 257.855 769.788 257.53 769.545 257.279C769.303 257.019 768.943 256.889 768.466 256.889H767.036V259.593H768.466ZM777.819 255.394C778.382 255.394 778.898 255.489 779.366 255.68C779.834 255.862 780.237 256.135 780.575 256.499C781.286 257.262 781.641 258.354 781.641 259.775C781.641 261.205 781.286 262.31 780.575 263.09C779.899 263.818 778.976 264.182 777.806 264.182C776.645 264.182 775.726 263.809 775.05 263.064C774.339 262.293 773.984 261.196 773.984 259.775C773.984 258.336 774.339 257.236 775.05 256.473C775.717 255.754 776.64 255.394 777.819 255.394ZM780.055 259.801C780.055 258.83 779.851 258.085 779.444 257.565C779.045 257.036 778.504 256.772 777.819 256.772C777.134 256.772 776.588 257.036 776.181 257.565C775.774 258.085 775.57 258.83 775.57 259.801C775.57 260.763 775.774 261.504 776.181 262.024C776.588 262.535 777.134 262.791 777.819 262.791C778.504 262.791 779.045 262.535 779.444 262.024C779.851 261.504 780.055 260.763 780.055 259.801ZM791.222 258.15C791.222 258.748 791.053 259.259 790.715 259.684C790.377 260.109 789.892 260.403 789.259 260.568L791.521 264H789.519L787.66 260.711H786.49V264H784.956V255.563H788.076C789.073 255.563 789.848 255.801 790.403 256.278C790.949 256.737 791.222 257.361 791.222 258.15ZM787.933 259.684C788.496 259.684 788.921 259.558 789.207 259.307C789.493 259.047 789.636 258.709 789.636 258.293C789.636 257.868 789.506 257.53 789.246 257.279C788.986 257.019 788.596 256.889 788.076 256.889H786.49V259.684H787.933ZM793.691 255.563H800.451V256.889H797.838V264H796.304V256.889H793.691V255.563Z" fill="#2D2641"/>
<path d="M737.743 293.661H741.214V295H736.209V286.563H737.743V293.661ZM744.133 286.563H745.667V295H744.133V286.563ZM750.257 286.563L752.311 293.076L754.391 286.563H756.003L753.104 295H751.492L748.632 286.563H750.257ZM758.965 286.563H764.399V287.889H760.499V290.112H764.152V291.438H760.499V293.661H764.399V295H758.965V286.563ZM775.912 286.394C776.432 286.394 776.882 286.459 777.264 286.589C777.645 286.71 777.974 286.884 778.252 287.109C778.798 287.551 779.153 288.171 779.318 288.968L777.68 289.267C777.541 288.825 777.324 288.47 777.03 288.201C776.744 287.924 776.384 287.785 775.951 287.785C775.361 287.785 774.885 288.032 774.521 288.526C774.131 289.063 773.936 289.809 773.936 290.762C773.936 291.707 774.109 292.448 774.456 292.985C774.802 293.514 775.275 293.778 775.873 293.778C776.471 293.778 776.921 293.635 777.225 293.349C777.528 293.054 777.68 292.677 777.68 292.218H779.331C779.331 293.163 779.027 293.895 778.421 294.415C777.823 294.926 776.999 295.182 775.951 295.182C774.833 295.182 773.944 294.792 773.286 294.012C772.618 293.215 772.285 292.131 772.285 290.762C772.285 289.375 772.627 288.292 773.312 287.512C773.97 286.767 774.837 286.394 775.912 286.394ZM784.156 286.563V290.086H787.835V286.563H789.369V295H787.835V291.425H784.156V295H782.622V286.563H784.156ZM795.251 286.563H797.175L799.944 295H798.319L797.734 293.18H794.601L794.003 295H792.378L795.251 286.563ZM794.991 292.023H797.357L796.187 288.396L794.991 292.023ZM801.224 286.563H807.984V287.889H805.371V295H803.837V287.889H801.224V286.563Z" fill="#2D2641"/>
</g>
<g clip-path="url(#clip3_0_259)">
<path d="M1024.45 173.394C1025.01 173.394 1025.53 173.489 1025.99 173.68C1026.46 173.862 1026.86 174.135 1027.2 174.499C1027.91 175.262 1028.27 176.354 1028.27 177.775C1028.27 179.205 1027.91 180.31 1027.2 181.09C1026.53 181.818 1025.6 182.182 1024.43 182.182C1023.27 182.182 1022.35 181.809 1021.68 181.064C1020.97 180.293 1020.61 179.196 1020.61 177.775C1020.61 176.336 1020.97 175.236 1021.68 174.473C1022.34 173.754 1023.27 173.394 1024.45 173.394ZM1026.68 177.801C1026.68 176.83 1026.48 176.085 1026.07 175.565C1025.67 175.036 1025.13 174.772 1024.45 174.772C1023.76 174.772 1023.22 175.036 1022.81 175.565C1022.4 176.085 1022.2 176.83 1022.2 177.801C1022.2 178.763 1022.4 179.504 1022.81 180.024C1023.22 180.535 1023.76 180.791 1024.45 180.791C1025.13 180.791 1025.67 180.535 1026.07 180.024C1026.48 179.504 1026.68 178.763 1026.68 177.801ZM1030.45 173.563H1037.21V174.889H1034.6V182H1033.07V174.889H1030.45V173.563ZM1041.54 173.563V177.086H1045.21V173.563H1046.75V182H1045.21V178.425H1041.54V182H1040V173.563H1041.54ZM1050.67 173.563H1056.1V174.889H1052.2V177.112H1055.85V178.438H1052.2V180.661H1056.1V182H1050.67V173.563ZM1066.06 176.15C1066.06 176.748 1065.89 177.259 1065.56 177.684C1065.22 178.109 1064.73 178.403 1064.1 178.568L1066.36 182H1064.36L1062.5 178.711H1061.33V182H1059.8V173.563H1062.92C1063.91 173.563 1064.69 173.801 1065.24 174.278C1065.79 174.737 1066.06 175.361 1066.06 176.15ZM1062.77 177.684C1063.34 177.684 1063.76 177.558 1064.05 177.307C1064.33 177.047 1064.48 176.709 1064.48 176.293C1064.48 175.868 1064.35 175.53 1064.09 175.279C1063.83 175.019 1063.44 174.889 1062.92 174.889H1061.33V177.684H1062.77ZM1074.1 175.89C1073.96 175.153 1073.44 174.785 1072.54 174.785C1072.1 174.785 1071.75 174.876 1071.5 175.058C1071.25 175.231 1071.13 175.444 1071.13 175.695C1071.13 175.946 1071.21 176.146 1071.37 176.293C1071.53 176.432 1071.78 176.562 1072.12 176.683L1073.95 177.398C1074.58 177.641 1075.06 177.948 1075.4 178.321C1075.74 178.685 1075.9 179.144 1075.9 179.699C1075.9 180.462 1075.62 181.068 1075.05 181.519C1074.47 181.961 1073.66 182.182 1072.6 182.182C1071.67 182.182 1070.91 181.952 1070.33 181.493C1069.68 180.99 1069.33 180.28 1069.3 179.361H1070.82C1070.82 180.054 1071.18 180.492 1071.9 180.674C1072.12 180.735 1072.4 180.765 1072.76 180.765C1073.11 180.765 1073.44 180.678 1073.75 180.505C1074.05 180.323 1074.2 180.085 1074.2 179.79C1074.2 179.487 1074.12 179.257 1073.95 179.101C1073.79 178.936 1073.52 178.785 1073.15 178.646L1071.47 177.983C1070.82 177.732 1070.32 177.437 1069.98 177.099C1069.63 176.761 1069.46 176.293 1069.46 175.695C1069.46 174.993 1069.73 174.438 1070.28 174.031C1070.83 173.606 1071.58 173.394 1072.52 173.394C1073.48 173.394 1074.21 173.615 1074.72 174.057C1075.24 174.49 1075.54 175.101 1075.62 175.89H1074.1Z" fill="#837D88"/>
<path d="M1024.24 224.394C1024.76 224.394 1025.21 224.459 1025.59 224.589C1025.97 224.71 1026.3 224.884 1026.58 225.109C1027.12 225.551 1027.48 226.171 1027.64 226.968L1026.01 227.267C1025.87 226.825 1025.65 226.47 1025.36 226.201C1025.07 225.924 1024.71 225.785 1024.28 225.785C1023.69 225.785 1023.21 226.032 1022.85 226.526C1022.46 227.063 1022.26 227.809 1022.26 228.762C1022.26 229.707 1022.44 230.448 1022.78 230.985C1023.13 231.514 1023.6 231.778 1024.2 231.778C1024.8 231.778 1025.25 231.635 1025.55 231.349C1025.85 231.054 1026.01 230.677 1026.01 230.218H1027.66C1027.66 231.163 1027.35 231.895 1026.75 232.415C1026.15 232.926 1025.33 233.182 1024.28 233.182C1023.16 233.182 1022.27 232.792 1021.61 232.012C1020.94 231.215 1020.61 230.131 1020.61 228.762C1020.61 227.375 1020.95 226.292 1021.64 225.512C1022.3 224.767 1023.16 224.394 1024.24 224.394ZM1032.9 224.563H1034.82L1037.59 233H1035.97L1035.38 231.18H1032.25L1031.65 233H1030.03L1032.9 224.563ZM1032.64 230.023H1035L1033.83 226.396L1032.64 230.023ZM1046.85 227.15C1046.85 227.748 1046.68 228.259 1046.34 228.684C1046.01 229.109 1045.52 229.403 1044.89 229.568L1047.15 233H1045.15L1043.29 229.711H1042.12V233H1040.59V224.563H1043.71C1044.7 224.563 1045.48 224.801 1046.03 225.278C1046.58 225.737 1046.85 226.361 1046.85 227.15ZM1043.56 228.684C1044.13 228.684 1044.55 228.558 1044.84 228.307C1045.12 228.047 1045.27 227.709 1045.27 227.293C1045.27 226.868 1045.14 226.53 1044.88 226.279C1044.62 226.019 1044.23 225.889 1043.71 225.889H1042.12V228.684H1043.56ZM1050.44 224.563H1055.87V225.889H1051.97V228.112H1055.63V229.438H1051.97V231.661H1055.87V233H1050.44V224.563ZM1059.56 224.563H1064.99V225.889H1061.09V228.112H1064.74V229.438H1061.09V231.661H1064.99V233H1059.56V224.563ZM1074.95 227.15C1074.95 227.748 1074.78 228.259 1074.45 228.684C1074.11 229.109 1073.62 229.403 1072.99 229.568L1075.25 233H1073.25L1071.39 229.711H1070.22V233H1068.69V224.563H1071.81C1072.8 224.563 1073.58 224.801 1074.13 225.278C1074.68 225.737 1074.95 226.361 1074.95 227.15ZM1071.66 228.684C1072.23 228.684 1072.65 228.558 1072.94 228.307C1073.22 228.047 1073.37 227.709 1073.37 227.293C1073.37 226.868 1073.24 226.53 1072.98 226.279C1072.72 226.019 1072.33 225.889 1071.81 225.889H1070.22V228.684H1071.66ZM1082.99 226.89C1082.85 226.153 1082.33 225.785 1081.43 225.785C1080.98 225.785 1080.64 225.876 1080.39 226.058C1080.14 226.231 1080.02 226.444 1080.02 226.695C1080.02 226.946 1080.1 227.146 1080.26 227.293C1080.42 227.432 1080.67 227.562 1081.01 227.683L1082.84 228.398C1083.47 228.641 1083.95 228.948 1084.29 229.321C1084.62 229.685 1084.79 230.144 1084.79 230.699C1084.79 231.462 1084.51 232.068 1083.93 232.519C1083.36 232.961 1082.55 233.182 1081.49 233.182C1080.55 233.182 1079.8 232.952 1079.22 232.493C1078.57 231.99 1078.22 231.28 1078.19 230.361H1079.71C1079.71 231.054 1080.07 231.492 1080.79 231.674C1081.01 231.735 1081.29 231.765 1081.65 231.765C1082 231.765 1082.33 231.678 1082.63 231.505C1082.94 231.323 1083.09 231.085 1083.09 230.79C1083.09 230.487 1083.01 230.257 1082.84 230.101C1082.68 229.936 1082.41 229.785 1082.04 229.646L1080.36 228.983C1079.71 228.732 1079.21 228.437 1078.86 228.099C1078.52 227.761 1078.34 227.293 1078.34 226.695C1078.34 225.993 1078.62 225.438 1079.16 225.031C1079.72 224.606 1080.47 224.394 1081.41 224.394C1082.37 224.394 1083.1 224.615 1083.61 225.057C1084.13 225.49 1084.43 226.101 1084.51 226.89H1082.99Z" fill="#2D2641"/>
<path d="M1024.15 255.563C1025.1 255.563 1025.84 255.797 1026.37 256.265C1026.91 256.724 1027.18 257.387 1027.18 258.254C1027.18 259.112 1026.91 259.775 1026.37 260.243C1025.84 260.702 1025.1 260.932 1024.15 260.932H1022.72V264H1021.17V255.563H1024.15ZM1024.15 259.593C1024.62 259.593 1024.98 259.467 1025.23 259.216C1025.47 258.965 1025.59 258.644 1025.59 258.254C1025.59 257.855 1025.47 257.53 1025.23 257.279C1024.98 257.019 1024.62 256.889 1024.15 256.889H1022.72V259.593H1024.15ZM1036.53 258.15C1036.53 258.748 1036.36 259.259 1036.02 259.684C1035.68 260.109 1035.2 260.403 1034.57 260.568L1036.83 264H1034.83L1032.97 260.711H1031.8V264H1030.26V255.563H1033.38C1034.38 255.563 1035.16 255.801 1035.71 256.278C1036.26 256.737 1036.53 257.361 1036.53 258.15ZM1033.24 259.684C1033.8 259.684 1034.23 259.558 1034.51 259.307C1034.8 259.047 1034.94 258.709 1034.94 258.293C1034.94 257.868 1034.81 257.53 1034.55 257.279C1034.29 257.019 1033.9 256.889 1033.38 256.889H1031.8V259.684H1033.24ZM1040.12 255.563H1045.55V256.889H1041.65V259.112H1045.3V260.438H1041.65V262.661H1045.55V264H1040.12V255.563ZM1053.68 257.89C1053.54 257.153 1053.02 256.785 1052.12 256.785C1051.68 256.785 1051.33 256.876 1051.08 257.058C1050.84 257.231 1050.72 257.444 1050.72 257.695C1050.72 257.946 1050.79 258.146 1050.95 258.293C1051.11 258.432 1051.37 258.562 1051.7 258.683L1053.54 259.398C1054.16 259.641 1054.64 259.948 1054.98 260.321C1055.32 260.685 1055.49 261.144 1055.49 261.699C1055.49 262.462 1055.2 263.068 1054.63 263.519C1054.06 263.961 1053.24 264.182 1052.18 264.182C1051.25 264.182 1050.49 263.952 1049.91 263.493C1049.26 262.99 1048.92 262.28 1048.88 261.361H1050.4C1050.4 262.054 1050.76 262.492 1051.48 262.674C1051.7 262.735 1051.98 262.765 1052.34 262.765C1052.7 262.765 1053.02 262.678 1053.33 262.505C1053.63 262.323 1053.78 262.085 1053.78 261.79C1053.78 261.487 1053.7 261.257 1053.54 261.101C1053.37 260.936 1053.1 260.785 1052.73 260.646L1051.05 259.983C1050.4 259.732 1049.9 259.437 1049.56 259.099C1049.21 258.761 1049.04 258.293 1049.04 257.695C1049.04 256.993 1049.31 256.438 1049.86 256.031C1050.41 255.606 1051.16 255.394 1052.11 255.394C1053.06 255.394 1053.79 255.615 1054.3 256.057C1054.82 256.49 1055.12 257.101 1055.2 257.89H1053.68ZM1063.47 257.89C1063.33 257.153 1062.81 256.785 1061.91 256.785C1061.47 256.785 1061.12 256.876 1060.87 257.058C1060.63 257.231 1060.51 257.444 1060.51 257.695C1060.51 257.946 1060.58 258.146 1060.74 258.293C1060.9 258.432 1061.16 258.562 1061.49 258.683L1063.33 259.398C1063.95 259.641 1064.43 259.948 1064.77 260.321C1065.11 260.685 1065.28 261.144 1065.28 261.699C1065.28 262.462 1064.99 263.068 1064.42 263.519C1063.85 263.961 1063.03 264.182 1061.97 264.182C1061.04 264.182 1060.28 263.952 1059.7 263.493C1059.05 262.99 1058.71 262.28 1058.67 261.361H1060.19C1060.19 262.054 1060.55 262.492 1061.27 262.674C1061.49 262.735 1061.77 262.765 1062.13 262.765C1062.49 262.765 1062.81 262.678 1063.12 262.505C1063.42 262.323 1063.57 262.085 1063.57 261.79C1063.57 261.487 1063.49 261.257 1063.33 261.101C1063.16 260.936 1062.89 260.785 1062.52 260.646L1060.84 259.983C1060.19 259.732 1059.69 259.437 1059.35 259.099C1059 258.761 1058.83 258.293 1058.83 257.695C1058.83 256.993 1059.1 256.438 1059.65 256.031C1060.2 255.606 1060.95 255.394 1061.9 255.394C1062.85 255.394 1063.58 255.615 1064.09 256.057C1064.61 256.49 1064.91 257.101 1064.99 257.89H1063.47Z" fill="#2D2641"/>
<path d="M1022.74 293.661H1026.21V295H1021.21V286.563H1022.74V293.661ZM1029.13 286.563H1030.67V295H1029.13V286.563ZM1037.61 286.394C1038.13 286.394 1038.58 286.459 1038.96 286.589C1039.34 286.71 1039.67 286.884 1039.95 287.109C1040.5 287.551 1040.85 288.171 1041.02 288.968L1039.38 289.267C1039.24 288.825 1039.02 288.47 1038.73 288.201C1038.44 287.924 1038.08 287.785 1037.65 287.785C1037.06 287.785 1036.58 288.032 1036.22 288.526C1035.83 289.063 1035.63 289.809 1035.63 290.762C1035.63 291.707 1035.81 292.448 1036.15 292.985C1036.5 293.514 1036.97 293.778 1037.57 293.778C1038.17 293.778 1038.62 293.635 1038.92 293.349C1039.23 293.054 1039.38 292.677 1039.38 292.218H1041.03C1041.03 293.163 1040.73 293.895 1040.12 294.415C1039.52 294.926 1038.7 295.182 1037.65 295.182C1036.53 295.182 1035.64 294.792 1034.98 294.012C1034.32 293.215 1033.98 292.131 1033.98 290.762C1033.98 289.375 1034.33 288.292 1035.01 287.512C1035.67 286.767 1036.54 286.394 1037.61 286.394ZM1044.31 286.563H1049.74V287.889H1045.84V290.112H1049.49V291.438H1045.84V293.661H1049.74V295H1044.31V286.563ZM1055.09 286.563L1058.81 292.543V286.563H1060.34V295H1058.78L1054.95 288.812V295H1053.41V286.563H1055.09ZM1068.69 288.89C1068.55 288.153 1068.03 287.785 1067.13 287.785C1066.69 287.785 1066.34 287.876 1066.09 288.058C1065.85 288.231 1065.72 288.444 1065.72 288.695C1065.72 288.946 1065.8 289.146 1065.96 289.293C1066.12 289.432 1066.37 289.562 1066.71 289.683L1068.55 290.398C1069.17 290.641 1069.65 290.948 1069.99 291.321C1070.33 291.685 1070.5 292.144 1070.5 292.699C1070.5 293.462 1070.21 294.068 1069.64 294.519C1069.07 294.961 1068.25 295.182 1067.19 295.182C1066.26 295.182 1065.5 294.952 1064.92 294.493C1064.27 293.99 1063.93 293.28 1063.89 292.361H1065.41C1065.41 293.054 1065.77 293.492 1066.49 293.674C1066.71 293.735 1066.99 293.765 1067.35 293.765C1067.71 293.765 1068.03 293.678 1068.34 293.505C1068.64 293.323 1068.79 293.085 1068.79 292.79C1068.79 292.487 1068.71 292.257 1068.55 292.101C1068.38 291.936 1068.11 291.785 1067.74 291.646L1066.06 290.983C1065.41 290.732 1064.91 290.437 1064.57 290.099C1064.22 289.761 1064.05 289.293 1064.05 288.695C1064.05 287.993 1064.32 287.438 1064.87 287.031C1065.42 286.606 1066.17 286.394 1067.12 286.394C1068.07 286.394 1068.8 286.615 1069.31 287.057C1069.83 287.49 1070.13 288.101 1070.21 288.89H1068.69ZM1074.03 286.563H1079.47V287.889H1075.57V290.112H1079.22V291.438H1075.57V293.661H1079.47V295H1074.03V286.563ZM1087.6 288.89C1087.46 288.153 1086.94 287.785 1086.04 287.785C1085.59 287.785 1085.25 287.876 1085 288.058C1084.75 288.231 1084.63 288.444 1084.63 288.695C1084.63 288.946 1084.71 289.146 1084.87 289.293C1085.03 289.432 1085.28 289.562 1085.62 289.683L1087.45 290.398C1088.08 290.641 1088.56 290.948 1088.9 291.321C1089.23 291.685 1089.4 292.144 1089.4 292.699C1089.4 293.462 1089.12 294.068 1088.55 294.519C1087.97 294.961 1087.16 295.182 1086.1 295.182C1085.17 295.182 1084.41 294.952 1083.83 294.493C1083.18 293.99 1082.83 293.28 1082.8 292.361H1084.32C1084.32 293.054 1084.68 293.492 1085.4 293.674C1085.62 293.735 1085.9 293.765 1086.26 293.765C1086.61 293.765 1086.94 293.678 1087.25 293.505C1087.55 293.323 1087.7 293.085 1087.7 292.79C1087.7 292.487 1087.62 292.257 1087.45 292.101C1087.29 291.936 1087.02 291.785 1086.65 291.646L1084.97 290.983C1084.32 290.732 1083.82 290.437 1083.48 290.099C1083.13 289.761 1082.96 289.293 1082.96 288.695C1082.96 287.993 1083.23 287.438 1083.77 287.031C1084.33 286.606 1085.08 286.394 1086.02 286.394C1086.98 286.394 1087.71 286.615 1088.22 287.057C1088.74 287.49 1089.04 288.101 1089.12 288.89H1087.6Z" fill="#2D2641"/>
</g>
<path fill-rule="evenodd" clip-rule="evenodd" d="M198.83 80.5084C198.176 80.2206 197.531 79.8972 196.895 79.5383L195 82.4206C195.665 82.8019 196.389 83.1514 197.17 83.4692C197.951 83.7869 198.774 84.0598 199.637 84.2879C200.501 84.5159 201.404 84.6916 202.346 84.815C203.288 84.9383 204.252 85 205.239 85C206.735 85 208.092 84.8598 209.31 84.5794C210.529 84.2991 211.57 83.8879 212.434 83.3458C213.297 82.8037 213.963 82.1383 214.43 81.3495C214.897 80.5607 215.131 79.6617 215.131 78.6523C215.131 77.8972 214.993 77.215 214.716 76.6056C214.439 75.9963 214.032 75.4766 213.493 75.0467C212.955 74.6168 212.288 74.286 211.492 74.0542C210.695 73.8224 209.781 73.7065 208.75 73.7065C208.204 73.7065 207.641 73.7346 207.062 73.7907C206.482 73.8467 205.914 73.9084 205.357 73.9757L204.541 74.0724L203.764 74.1607C203.26 74.2168 202.813 74.2449 202.424 74.2449C201.46 74.2449 200.742 74.0785 200.271 73.7458C199.8 73.4131 199.564 72.985 199.564 72.4617C199.564 72.1925 199.637 71.9215 199.783 71.6486C199.929 71.3757 200.189 71.129 200.563 70.9084C200.936 70.6878 201.439 70.5065 202.071 70.3645C202.703 70.2224 203.508 70.1514 204.488 70.1514C205.176 70.1514 205.85 70.1907 206.512 70.2692C207.174 70.3477 207.815 70.4542 208.436 70.5888C209.056 70.7234 209.65 70.8822 210.219 71.0654C210.787 71.2486 211.318 71.4486 211.811 71.6654L213.37 68.7944C212.772 68.5252 212.125 68.2804 211.43 68.0598C210.735 67.8393 210.011 67.6505 209.26 67.4935C208.508 67.3364 207.736 67.215 206.944 67.129C206.151 67.043 205.363 67 204.578 67C203.493 67 202.527 67.0766 201.679 67.2299C200.83 67.3832 200.082 67.5944 199.436 67.8636C198.789 68.1327 198.237 68.4523 197.781 68.8224C197.325 69.1925 196.953 69.5925 196.665 70.0224C196.378 70.4523 196.168 70.9028 196.037 71.3738C195.907 71.8449 195.841 72.3196 195.841 72.7981C195.841 73.6056 196.006 74.3121 196.335 74.9178C196.664 75.5234 197.107 76.028 197.664 76.4318C198.221 76.8355 198.86 77.1383 199.581 77.3402C200.303 77.5421 201.056 77.643 201.841 77.643C202.312 77.643 202.815 77.6112 203.35 77.5477C203.884 77.4841 204.426 77.415 204.976 77.3402L205.796 77.2322L206.607 77.1327C207.146 77.0692 207.658 77.0374 208.144 77.0374C209.25 77.0374 210.069 77.2224 210.6 77.5925C211.131 77.9626 211.396 78.4654 211.396 79.1009C211.396 79.4972 211.29 79.8635 211.077 80.2C210.864 80.5365 210.523 80.8262 210.056 81.0692C209.589 81.3122 208.985 81.5028 208.245 81.6411C207.505 81.7794 206.607 81.8486 205.553 81.8486C204.679 81.8486 203.854 81.7963 203.08 81.6916C202.307 81.5869 201.568 81.4355 200.865 81.2374C200.163 81.0393 199.484 80.7963 198.83 80.5084ZM165 67.2243H168.578V84.7533H165V67.2243ZM173.086 67.2243H176.641L187.564 72.9439V67.2243H191.12V84.7533H187.564V76.7121L176.641 71.0262V84.7533H173.086V67.2243ZM218.383 67.2243H221.938V76.8804C221.938 77.6729 222.047 78.3776 222.264 78.9944C222.48 79.6112 222.804 80.1327 223.234 80.5589C223.664 80.985 224.196 81.3084 224.832 81.529C225.467 81.7495 226.207 81.8598 227.052 81.8598C227.89 81.8598 228.628 81.7495 229.267 81.529C229.907 81.3084 230.441 80.985 230.871 80.5589C231.301 80.1327 231.624 79.6112 231.841 78.9944C232.058 78.3776 232.166 77.6729 232.166 76.8804V67.2243H235.721V77.3065C235.721 78.4579 235.527 79.5047 235.138 80.4467C234.75 81.3888 234.185 82.1963 233.445 82.8692C232.705 83.5421 231.798 84.0617 230.725 84.428C229.652 84.7944 228.428 84.9776 227.052 84.9776C225.677 84.9776 224.452 84.7944 223.379 84.428C222.307 84.0617 221.4 83.5421 220.66 82.8692C219.92 82.1963 219.355 81.3888 218.966 80.4467C218.578 79.5047 218.383 78.4579 218.383 77.3065V67.2243ZM248.966 67.2243H240.05V84.7533H243.606V79.7626L249.09 79.7738L252.387 84.7533H256.738L252.925 79.1458C253.591 78.8916 254.17 78.572 254.664 78.1869C255.157 77.8019 255.566 77.3626 255.892 76.8692C256.217 76.3757 256.458 75.8355 256.615 75.2486C256.772 74.6617 256.85 74.043 256.85 73.3925C256.85 72.428 256.692 71.5645 256.374 70.8019C256.056 70.0392 255.572 69.3925 254.921 68.8617C254.271 68.3308 253.452 67.9252 252.465 67.6449C251.479 67.3645 250.312 67.2243 248.966 67.2243ZM249.056 76.6897C249.729 76.6897 250.318 76.6112 250.822 76.4542C251.327 76.2972 251.75 76.0766 252.09 75.7925C252.43 75.5084 252.684 75.1626 252.852 74.7551C253.021 74.3477 253.105 73.8935 253.105 73.3925C253.105 72.4131 252.768 71.6561 252.095 71.1215C251.422 70.5869 250.409 70.3196 249.056 70.3196H243.606V76.6897H249.056ZM275.983 67.2243H261.056V84.7533H276.219V81.6467H264.611V76.7682H274.682V73.8411H264.611V70.3421H275.983V67.2243Z" fill="#2C2830"/>
<path d="M1153.67 64H1132.33C1131.59 64 1131 64.593 1131 65.325V86.676C1131 87.407 1131.59 88 1132.33 88H1143.82V78.706H1140.69V75.084H1143.82V72.413C1143.82 69.313 1145.71 67.625 1148.48 67.625C1149.8 67.625 1150.94 67.724 1151.27 67.768V71.008L1149.36 71.009C1147.85 71.009 1147.56 71.724 1147.56 72.772V75.085H1151.15L1150.68 78.707H1147.56V88H1153.68C1154.41 88 1155 87.407 1155 86.675V65.325C1155 64.593 1154.41 64 1153.67 64Z" fill="#2C2830"/>
<path fill-rule="evenodd" clip-rule="evenodd" d="M1263 64C1259.74 64 1259.33 64.014 1258.05 64.072C1253.7 64.272 1251.27 66.69 1251.07 71.052C1251.01 72.333 1251 72.741 1251 76C1251 79.259 1251.01 79.668 1251.07 80.948C1251.27 85.306 1253.69 87.728 1258.05 87.928C1259.33 87.986 1259.74 88 1263 88C1266.26 88 1266.67 87.986 1267.95 87.928C1272.3 87.728 1274.73 85.31 1274.93 80.948C1274.99 79.668 1275 79.259 1275 76C1275 72.741 1274.99 72.333 1274.93 71.053C1274.73 66.699 1272.31 64.273 1267.95 64.073C1266.67 64.014 1266.26 64 1263 64ZM1263 66.163C1266.2 66.163 1266.58 66.175 1267.85 66.233C1271.1 66.381 1272.62 67.924 1272.77 71.152C1272.83 72.417 1272.84 72.797 1272.84 76.001C1272.84 79.206 1272.83 79.585 1272.77 80.85C1272.62 84.075 1271.1 85.621 1267.85 85.769C1266.58 85.827 1266.21 85.839 1263 85.839C1259.8 85.839 1259.42 85.827 1258.15 85.769C1254.89 85.62 1253.38 84.07 1253.23 80.849C1253.17 79.584 1253.16 79.205 1253.16 76C1253.16 72.796 1253.17 72.417 1253.23 71.151C1253.38 67.924 1254.9 66.38 1258.15 66.232C1259.42 66.175 1259.8 66.163 1263 66.163ZM1256.84 76C1256.84 72.597 1259.6 69.838 1263 69.838C1266.4 69.838 1269.16 72.597 1269.16 76C1269.16 79.404 1266.4 82.163 1263 82.163C1259.6 82.163 1256.84 79.403 1256.84 76ZM1263 80C1260.79 80 1259 78.21 1259 76C1259 73.791 1260.79 72 1263 72C1265.21 72 1267 73.791 1267 76C1267 78.21 1265.21 80 1263 80ZM1267.97 69.595C1267.97 68.8 1268.61 68.155 1269.41 68.155C1270.2 68.155 1270.85 68.8 1270.85 69.595C1270.85 70.39 1270.2 71.035 1269.41 71.035C1268.61 71.035 1267.97 70.39 1267.97 69.595Z" fill="#837D88"/>
<path d="M1223 64C1216.37 64 1211 69.372 1211 76C1211 81.084 1214.16 85.426 1218.63 87.174C1218.52 86.225 1218.43 84.769 1218.67 83.733C1218.89 82.796 1220.08 77.768 1220.08 77.768C1220.08 77.768 1219.72 77.049 1219.72 75.986C1219.72 74.318 1220.68 73.072 1221.89 73.072C1222.91 73.072 1223.41 73.841 1223.41 74.762C1223.41 75.791 1222.75 77.33 1222.41 78.757C1222.13 79.951 1223.01 80.926 1224.19 80.926C1226.32 80.926 1227.96 78.677 1227.96 75.431C1227.96 72.558 1225.9 70.549 1222.95 70.549C1219.53 70.549 1217.53 73.11 1217.53 75.756C1217.53 76.787 1217.93 77.894 1218.42 78.494C1218.52 78.613 1218.54 78.718 1218.51 78.839L1218.17 80.199C1218.12 80.419 1218 80.466 1217.77 80.36C1216.27 79.662 1215.34 77.471 1215.34 75.711C1215.34 71.926 1218.09 68.449 1223.27 68.449C1227.43 68.449 1230.66 71.416 1230.66 75.38C1230.66 79.516 1228.06 82.844 1224.44 82.844C1223.22 82.844 1222.08 82.213 1221.69 81.466L1220.94 84.319C1220.67 85.362 1219.94 86.669 1219.45 87.465C1220.57 87.812 1221.76 88 1223 88C1229.63 88 1235 82.627 1235 76C1235 69.372 1229.63 64 1223 64Z" fill="#837D88"/>
<path d="M1195 68.557C1194.12 68.949 1193.17 69.213 1192.17 69.332C1193.19 68.723 1193.97 67.758 1194.34 66.608C1193.39 67.172 1192.33 67.582 1191.21 67.803C1190.31 66.846 1189.03 66.248 1187.62 66.248C1184.44 66.248 1182.1 69.214 1182.82 72.293C1178.73 72.088 1175.1 70.128 1172.67 67.149C1171.38 69.362 1172 72.257 1174.19 73.723C1173.39 73.697 1172.63 73.476 1171.96 73.107C1171.91 75.388 1173.55 77.522 1175.91 77.997C1175.22 78.185 1174.46 78.229 1173.69 78.081C1174.32 80.037 1176.13 81.46 1178.29 81.5C1176.22 83.123 1173.61 83.848 1171 83.54C1173.18 84.937 1175.77 85.752 1178.55 85.752C1187.69 85.752 1192.85 78.031 1192.54 71.106C1193.5 70.411 1194.34 69.544 1195 68.557Z" fill="#837D88"/>
<rect width="1110" height="1" transform="matrix(1 0 0 -1 165 122)" fill="#DADADA"/>
<defs>
<clipPath id="clip0_0_259">
<rect width="255" height="159" fill="white" transform="translate(165 170)"/>
</clipPath>
<clipPath id="clip1_0_259">
<rect width="255" height="159" fill="white" transform="translate(450 170)"/>
</clipPath>
<clipPath id="clip2_0_259">
<rect width="255" height="128" fill="white" transform="translate(735 170)"/>
</clipPath>
<clipPath id="clip3_0_259">
<rect width="255" height="128" fill="white" transform="translate(1020 170)"/>
</clipPath>
</defs>
</svg>
