<svg width="146" height="40" viewBox="0 0 146 40" fill="none" xmlns="http://www.w3.org/2000/svg">
<g clip-path="url(#clip0_0_238)">
<rect x="0.75" y="0.75" width="144.5" height="38.5" fill="#2C2830" stroke="#2C2830" stroke-width="1.5"/>
<path d="M30.6204 16.563L32.6744 23.076L34.7544 16.563H36.3664L33.4674 25H31.8554L28.9954 16.563H30.6204ZM39.3408 16.563H40.8748V25H39.3408V16.563ZM44.7761 16.563H50.2101V17.889H46.3101V20.112H49.9631V21.438H46.3101V23.661H50.2101V25H44.7761V16.563ZM54.6733 16.563L56.5323 22.972L58.3393 17.122H59.3793L61.2903 22.998L63.2663 16.563H64.9953L62.0963 25H60.4843L58.8983 20.242L57.3253 25H55.7133L52.9573 16.563H54.6733ZM75.688 16.563C76.6413 16.563 77.3823 16.797 77.911 17.265C78.4483 17.7243 78.717 18.3873 78.717 19.254C78.717 20.112 78.4483 20.775 77.911 21.243C77.3823 21.7023 76.6413 21.932 75.688 21.932H74.258V25H72.711V16.563H75.688ZM75.688 20.593C76.1647 20.593 76.5243 20.4673 76.767 20.216C77.0097 19.9647 77.131 19.644 77.131 19.254C77.131 18.8553 77.0097 18.5303 76.767 18.279C76.5243 18.019 76.1647 17.889 75.688 17.889H74.258V20.593H75.688ZM83.3377 23.661H86.8087V25H81.8037V16.563H83.3377V23.661ZM91.6776 16.563H93.6016L96.3706 25H94.7456L94.1606 23.18H91.0276L90.4296 25H88.8046L91.6776 16.563ZM91.4176 22.023H93.7836L92.6136 18.396L91.4176 22.023ZM101.016 16.563L104.734 22.543V16.563H106.268V25H104.708L100.873 18.812V25H99.3393V16.563H101.016ZM114.617 18.89C114.478 18.1533 113.958 17.785 113.057 17.785C112.615 17.785 112.268 17.876 112.017 18.058C111.774 18.2313 111.653 18.4437 111.653 18.695C111.653 18.9463 111.731 19.1457 111.887 19.293C112.051 19.4317 112.303 19.5617 112.641 19.683L114.474 20.398C115.098 20.6407 115.579 20.9483 115.917 21.321C116.255 21.685 116.424 22.1443 116.424 22.699C116.424 23.4617 116.138 24.0683 115.566 24.519C114.994 24.961 114.179 25.182 113.122 25.182C112.186 25.182 111.427 24.9523 110.847 24.493C110.197 23.9903 109.854 23.2797 109.82 22.361H111.341C111.341 23.0543 111.7 23.492 112.42 23.674C112.636 23.7347 112.922 23.765 113.278 23.765C113.633 23.765 113.962 23.6783 114.266 23.505C114.569 23.323 114.721 23.0847 114.721 22.79C114.721 22.4867 114.638 22.257 114.474 22.101C114.309 21.9363 114.04 21.7847 113.668 21.646L111.991 20.983C111.341 20.7317 110.842 20.437 110.496 20.099C110.149 19.761 109.976 19.293 109.976 18.695C109.976 17.993 110.249 17.4383 110.795 17.031C111.349 16.6063 112.099 16.394 113.044 16.394C113.997 16.394 114.729 16.615 115.241 17.057C115.761 17.4903 116.06 18.1013 116.138 18.89H114.617Z" fill="white"/>
</g>
<defs>
<clipPath id="clip0_0_238">
<rect width="146" height="40" fill="white"/>
</clipPath>
</defs>
</svg>
